<?xml version="1.0" encoding="utf-8"?>
<!-- Generator: Adobe Illustrator 23.0.4, SVG Export Plug-In . SVG Version: 6.00 Build 0)  -->
<svg version="1.1" id="Calque_1" xmlns="http://www.w3.org/2000/svg" xmlns:xlink="http://www.w3.org/1999/xlink" x="0px" y="0px"
	 viewBox="0 0 421.8 67.8" style="enable-background:new 0 0 421.8 67.8;" xml:space="preserve">
<style type="text/css">
	.st0{fill:#FFFFFF;}
	.st1{fill:#FF1F5A;}
	.st2{font-family:'Mont-Heavy';}
	.st3{font-size:2.8001px;}
</style>
<path class="st0" d="M79.6,39.6c0.6,4.2,4.2,7.2,10.1,7.2c3.1,0,7.2-1.2,9.1-3.2l5.4,5.3c-3.6,3.7-9.4,5.5-14.6,5.5
	c-11.7,0-18.7-7.2-18.7-18.1c0-10.3,7-17.8,18.1-17.8c11.4,0,18.5,7,17.2,21H79.6z M98,32.6c-0.6-4.4-4-6.6-8.8-6.6
	c-4.5,0-8.3,2.2-9.5,6.6H98z"/>
<path class="st0" d="M133.5,41.5c0.6,4.2,4.2,7.2,10.1,7.2c3.1,0,7.2-1.2,9.1-3.2l5.4,5.3c-3.6,3.7-9.4,5.5-14.6,5.5
	c-11.7,0-18.7-7.2-18.7-18.1c0-10.3,7-17.8,18.1-17.8c11.4,0,18.5,7,17.2,21H133.5z M152,34.5c-0.6-4.4-4-6.6-8.8-6.6
	c-4.5,0-8.3,2.2-9.5,6.6H152z"/>
<path class="st0" d="M213.1,19.5l-14.5,34.2h-9.1L175,19.5h9.2l4.7,11.2l5.2,14.3l5.2-14.2l4.7-11.4H213.1z"/>
<path class="st0" d="M235.6,39.6c0.6,4.2,4.2,7.2,10.1,7.2c3.1,0,7.2-1.2,9.1-3.2l5.4,5.3c-3.6,3.7-9.4,5.5-14.6,5.5
	c-11.7,0-18.7-7.2-18.7-18.1c0-10.3,7-17.8,18.1-17.8c11.4,0,18.5,7,17.2,21H235.6z M254,32.6c-0.6-4.4-4-6.6-8.8-6.6
	c-4.5,0-8.3,2.2-9.5,6.6H254z"/>
<path class="st0" d="M306.4,53.6V35.8c0-5.2-2.8-9.1-8.2-9.1c-5.2,0-8.7,4.3-8.7,9.5v17.4h-8.3v-34h7.5l0.6,4.6
	c3.4-3.4,6.9-5.1,11.2-5.1c8,0,14.4,6,14.4,16.7v17.8H306.4z"/>
<path class="st0" d="M348.5,10v9.6h9.4v7.2h-9.4v14.7c0,3.2,1.8,4.8,4.4,4.8c1.3,0,2.8-0.4,4.1-1l2.3,7.2c-2.4,1-4.4,1.4-7,1.4
	c-7.4,0.3-12.2-3.9-12.2-12.4V26.9h-6.3v-7.2h6.3v-8.8L348.5,10z"/>
<path class="st0" d="M410.5,19.6l-20.7,48.2h-9.2l6.3-14.7l-13.6-33.4h9.8l5.2,14.7l3.2,9.6l3.5-9.4l6.2-14.9H410.5z"/>
<path class="st1" d="M49.2,14.8C48.7,6.8,42.5,0.5,34.4,0C34.1,0,0.3,0,0.3,0v58.2H0L41.3,30v0c4-2.6,7.4-7.4,7.8-12.7
	c0-0.4,0.1-0.8,0.1-1.2C49.2,15.7,49.2,15.2,49.2,14.8z M40.7,30.3C40.7,30.3,40.7,30.3,40.7,30.3C40.7,30.3,40.7,30.3,40.7,30.3z"
	/>
<polygon class="st0" points="43.8,34.4 43.8,57.7 28,45.4 "/>
<text transform="matrix(1 0 0 1 415.3109 23.0748)" class="st0 st2 st3">TM</text>
<path class="st0" d="M417.8,26c-2.2,0-4-1.8-4-4s1.8-4,4-4s4,1.8,4,4S420,26,417.8,26z M417.8,18.6c-1.9,0-3.4,1.5-3.4,3.4
	c0,1.9,1.5,3.4,3.4,3.4c1.9,0,3.4-1.5,3.4-3.4C421.2,20.2,419.7,18.6,417.8,18.6z"/>
</svg>
