<?xml version="1.0" encoding="utf-8"?>
<!-- Generator: Adobe Illustrator 23.0.4, SVG Export Plug-In . SVG Version: 6.00 Build 0)  -->
<svg version="1.1" id="Calque_1" xmlns="http://www.w3.org/2000/svg" xmlns:xlink="http://www.w3.org/1999/xlink" x="0px" y="0px"
	 viewBox="0 0 257.8 91.6" style="enable-background:new 0 0 257.8 91.6;" xml:space="preserve">
<style type="text/css">
	.st0{fill:#FFFFFF;}
</style>
<g>
	<g>
		<path class="st0" d="M75.8,11c-1.2-1.1-3.2-0.7-4.3,0.7c-0.6,0.8-0.9,1.7-0.9,2.6c-5.2-3.7-12.2-5.8-19.8-5.4
			c-8.1,0.4-15.2,3.7-20,8.4c-0.4,0.4,0.1,1.1,0.7,0.7c2.4-1.5,5.1-2.7,8.1-3.7c0.9-0.3,1.4,0.2,1.4,0.7s0.4,20.4,0.4,20.4h0.3
			c0,0,0.5-0.5,0.5-0.5v0.5h-0.8c0,0,0.7,0,0.8,0h0c0,0,3-11.3,3.1-11.5c0.2-0.6,1.1-0.7,1.3-0.1c0.1,0.2,3.3,10.9,3.4,11.2
			c0.2,0.6,0.9,0.5,0.9-0.2c0-0.6,0.8-20.9,0.9-21.7c0-0.8,0.3-1.1,1.4-1.1c8.5-0.5,15.7,2.3,19.2,4.8c1.1,0.8,3-0.2,3.8-1.3
			C77.1,14.1,77.1,12.1,75.8,11z"/>
		<path class="st0" d="M91.6,42.4c-0.1-1.6-1.7-2.8-3.5-2.6c-1,0.1-1.8,0.6-2.5,1.2c-1.1-6.3-4.5-12.7-10.2-17.9
			c-6.1-5.4-13.4-8.1-20.1-8.2c-0.6,0-0.7,0.8,0,1c2.7,0.6,5.5,1.7,8.3,3.2c0.8,0.4,1.2,0.8,0.8,1.1S50.6,34.8,50.6,34.8l0,0
			c0,0-0.1,0.1-0.1,0.1l-0.1,0.1l0,0c-0.3,0.3,0.2,0.8,0.6,0.6l0,0c0,0,9.9-5.7,10.1-5.8c0.5-0.3,1.2,0.3,0.9,0.9
			c-0.1,0.2-5.4,10.1-5.5,10.3c-0.3,0.5,0.2,1,0.7,0.5c0.4-0.4,15.4-14.2,15.9-14.7s1-0.5,1.8,0.2c6.4,5.7,9.5,12.7,10.1,17
			c0.2,1.4,2.2,2,3.6,1.8C90.4,45.5,91.8,44.1,91.6,42.4z"/>
		<path class="st0" d="M80.6,75.8c1.1-1.2,0.7-3.2-0.7-4.3c-0.8-0.6-1.7-0.9-2.6-0.9c3.7-5.2,5.8-12.2,5.4-19.8
			c-0.4-8.1-3.7-15.2-8.4-20c-0.4-0.4-1.1,0.1-0.7,0.7c1.5,2.4,2.7,5.1,3.7,8.1c0.3,0.9-0.1,1.4-0.6,1.4c-0.5,0-20.4,0.4-20.4,0.4
			v0.1l0.3,0h0.7v-0.1c0,0,0,0.7,0,0.8v0c0,0,10.7,3,10.9,3.1c0.6,0.2,0.4,1.1-0.2,1.3c-0.2,0.1-11,3.3-11.3,3.4
			c-0.6,0.2-0.5,0.9,0.1,0.9c0.6,0,20.9,0.8,21.7,0.9c0.8,0,1.1,0.3,1.1,1.4c0.5,8.5-2.3,15.7-4.9,19.2c-0.8,1.1,0.1,3,1.3,3.8
			C77.5,77.1,79.5,77.1,80.6,75.8z"/>
		<path class="st0" d="M49.2,91.6c1.6-0.1,2.8-1.7,2.6-3.5c-0.1-1-0.6-1.8-1.2-2.5c6.3-1.1,12.7-4.5,17.9-10.2
			c5.4-6.1,8.1-13.4,8.2-20.1c0-0.6-0.8-0.7-1,0c-0.6,2.7-1.7,5.5-3.2,8.3c-0.4,0.8-0.8,1.2-1.1,0.8S56.8,50.6,56.8,50.6l0,0
			c0,0-0.1-0.1-0.1-0.1l-0.1-0.1l0,0c-0.3-0.3-0.8,0.2-0.6,0.6l0,0c0,0,5.7,9.9,5.8,10.1c0.3,0.5-0.3,1.2-0.9,0.9
			c-0.2-0.1-10.1-5.4-10.3-5.5c-0.5-0.3-1,0.2-0.5,0.7c0.4,0.4,14.2,15.4,14.7,15.9s0.5,1-0.2,1.8c-5.7,6.4-12.7,9.5-17,10.1
			c-1.4,0.2-2,2.2-1.8,3.6C46.1,90.4,47.6,91.8,49.2,91.6z"/>
		<path class="st0" d="M15.8,80.6c1.2,1.1,3.2,0.7,4.3-0.7c0.6-0.8,0.9-1.7,0.9-2.6c5.2,3.7,12.2,5.8,19.8,5.4
			c8.1-0.4,15.2-3.7,20-8.4c0.4-0.4-0.1-1.1-0.7-0.7C57.8,75,55,76.2,52,77.2c-0.9,0.3-1.4,0.1-1.4-0.5s-0.4-20.2-0.4-20.2h0.1
			c0,0,0.9,0.1,0.9,0.1v-0.1h-1c0,0-0.7,0-0.8,0h0c0,0-3,11-3.1,11.3c-0.2,0.6-1.1,0.6-1.3,0c-0.1-0.2-3.3-10.9-3.4-11.2
			c-0.2-0.6-0.9-0.5-0.9,0.1c0,0.6-0.8,20.9-0.9,21.7c0,0.8-0.3,1.1-1.4,1.1C30,80,22.9,77.3,19.4,74.7c-1.1-0.8-3,0.2-3.8,1.3
			C14.5,77.5,14.6,79.5,15.8,80.6z"/>
		<path class="st0" d="M0,49.2c0.1,1.6,1.7,2.8,3.5,2.6c1-0.1,1.8-0.6,2.5-1.2c1.1,6.3,4.5,12.7,10.2,17.9
			c6.1,5.4,13.4,8.1,20.1,8.2c0.6,0,0.7-0.8,0-1c-2.7-0.6-5.5-1.7-8.3-3.2c-0.8-0.4-1.2-0.8-0.8-1.1S41,56.8,41,56.8l0,0
			c0,0,0.1-0.1,0.1-0.1l0.1-0.1l0,0c0.3-0.3-0.2-0.8-0.6-0.6l0,0c0,0-9.9,5.7-10.1,5.8c-0.5,0.3-1.2-0.3-0.9-0.9
			c0.1-0.2,5.4-10.1,5.5-10.3c0.3-0.5-0.2-1-0.7-0.5c-0.4,0.4-15.4,14.2-15.9,14.7c-0.6,0.5-1,0.5-1.8-0.2
			c-6.4-5.7-9.5-12.7-10.1-17c-0.2-1.4-2.2-2-3.6-1.8C1.2,46.1-0.1,47.6,0,49.2z"/>
		<path class="st0" d="M11,15.8C10,17,10.3,19,11.7,20.1c0.8,0.6,1.7,0.9,2.6,0.9c-3.7,5.2-5.8,12.2-5.4,19.8
			c0.4,8.1,3.7,15.2,8.4,20c0.4,0.4,1.1-0.1,0.7-0.7c-1.5-2.4-2.7-5.1-3.7-8.1c-0.3-0.9,0-1.4,0.5-1.4c0.5,0,20.3-0.4,20.3-0.4v0
			c0,0-0.3,0.3-0.3,0.3h1.3v-0.3c0,0,0-0.7,0-0.8v0c0,0-11.6-3-11.8-3.1c-0.6-0.2-0.9-1.1-0.3-1.3c0.2-0.1,10.8-3.3,11.1-3.4
			c0.6-0.2,0.4-0.9-0.2-0.9c-0.6,0-21-0.8-21.7-0.9c-0.8,0-1.1-0.3-1.2-1.4c-0.5-8.5,2.3-15.7,4.8-19.2c0.8-1.1-0.2-3-1.3-3.8
			C14.1,14.5,12.1,14.6,11,15.8z"/>
		<path class="st0" d="M42.4,0c-1.6,0.1-2.8,1.7-2.6,3.5c0.1,1,0.6,1.8,1.2,2.5c-6.3,1.1-12.7,4.5-17.9,10.2
			c-5.4,6.1-8.1,13.4-8.2,20.1c0,0.6,0.8,0.7,1,0c0.6-2.7,1.7-5.5,3.2-8.3c0.4-0.8,0.8-1.2,1.1-0.8S34.8,41,34.8,41l0,0
			c0,0,0.1,0.1,0.1,0.1l0.1,0.1l0,0c0.3,0.3,0.8-0.2,0.6-0.6l0,0c0,0-5.7-9.9-5.8-10.1c-0.3-0.5,0.3-1.2,0.9-0.9
			c0.2,0.1,10.1,5.4,10.3,5.5c0.5,0.3,1-0.2,0.5-0.7c-0.4-0.4-14.2-15.4-14.7-15.9c-0.5-0.6-0.5-1,0.2-1.8c5.7-6.4,12.7-9.5,17-10.1
			c1.4-0.2,2-2.2,1.8-3.6C45.5,1.2,44.1-0.1,42.4,0z"/>
	</g>
	<line class="st0" x1="104.7" y1="18.5" x2="104.7" y2="80.5"/>
	<path class="st0" d="M236.2,19.6c-0.1,0.2-0.2,0.2-0.3,0.1c-0.3-0.7-0.9-1-1.9-1c-2.4,0-3.1,1.6-3.1,2.4c0,0.5,0.1,0.8,0.3,1.3
		c0.6,1,3.2,4,3.2,6c0,5-4.2,6.7-8.1,6.2c-3-0.3-5.1-2.1-5.1-3.5c0-0.5,1.4-1.7,2.4-1.7c0,0.9,1.2,3.8,4.3,3.8
		c0.5,0,4.1-0.2,4.1-3.6c0-2.2-2.9-4.6-2.9-6.6c0-2.1,0.5-6.6,7.2-6c0.8,0.1,1.3,0.2,1.3,0.8C237.6,18,236.3,19.4,236.2,19.6"/>
	<path class="st0" d="M202.7,18.7c-6.4,0.7-13.4,11.6-13.4,14.5c0,0.5,0.2,0.7,0.8,0.7c1.9,0,8.6-8.5,10.8-11.6
		c0.9-1.4,1.2-2.6,1.7-3.7L202.7,18.7z M214.3,24.4c-1.2,1.4-2.4,2.9-3.7,4.3c-1.4,1.5-2.7,2.8-4.2,4c-1.4,1.2-2.8,2.1-4.2,2.8
		c-1.4,0.7-2.6,1-3.7,1c-1,0-2.7-0.4-2.7-2.7c0-0.7,0.2-1.6,0.7-2.9c0.5-1.2,0.6-1.6,1.5-3c-0.7,0.8-4.8,7.9-9.1,7.9
		c-1.5,0-2.1-1.1-2.1-2.1c0-1.2,0.5-2.7,1.4-4.4c0.9-1.7,2.2-3.5,3.6-5.2c1.5-1.6,3.3-3.4,5.3-4.6c2-1.2,3.5-1.7,6-1.6
		c0.2-0.5,0.5-0.8,0.7-1c0.9-0.9,2.7-1,2.7-1l0.1,0.1c-0.2,0.2-5.7,9.9-6.9,12.3c-1,2.4-1.6,4.2-1.6,5.4c0,0.5,0.1,0.8,0.3,1.2
		c0.2,0.3,0.5,0.3,1.2,0.3c0.8,0,1.7-0.3,2.8-0.9c1.2-0.6,2.3-1.4,3.5-2.4c1.3-1,2.4-2.2,3.8-3.6s2.6-2.8,3.7-4.4
		c0.1-0.1,0.4,0,0.6,0.1C214.3,24.1,214.3,24.2,214.3,24.4"/>
	<path class="st0" d="M210.3,34c-0.7,0-1.3-0.1-1.7-0.5c-0.5-0.3-0.6-0.8-0.6-1.4c0-1,0.6-2.6,1.9-4.5c1.3-2,4.9-7.7,5-7.9
		c0.7-0.9,3.3-1.3,2.6-0.3c-1.9,3.3-3.4,5.8-4.5,7.8c-1.3,2.2-1.6,3.3-1.7,4.5c0,0.6,0.2,0.9,0.8,0.9c1.2,0,4.9-2.8,5.3-3.4
		c0.4-0.5,0.3-0.3,1.1-2.1c0.9-1.7,2-3.7,3.1-5.9c0.6-1.2,2.2-4.5,2.7-4.2c0.7,0.3,1.2,1.9,1.2,2.3c0,0.2-0.2,0.7-0.7,1.4
		c-0.5,0.7-11.7,27.1-26.7,27.1c-6.3,0-5.6-5.6-5.5-6.1c0.1-0.5,1.3,3.8,7.3,3.8c6.5,0,14.5-11.6,15.8-13.8c0.1-0.2,0.1-0.2,0-0.2
		c-0.1,0-0.2,0.1-0.2,0.1c-0.6,0.5-1.3,0.9-2.3,1.5C212.2,33.6,211.3,34,210.3,34"/>
	<g>
		<path class="st0" d="M136.9,14.7h6.6V34h-5.1V21.3l-4.7,9.8h-4.5l-4.7-9.4V34h-5.1V14.7h6.6l5.5,11.3L136.9,14.7z"/>
		<path class="st0" d="M152.7,30h10.8V34h-16.2V14.7h16v4.1h-10.6v3.4h9.3v4.1h-9.3V30z"/>
		<path class="st0" d="M169.6,34.1c-1.1-0.1-2.2-0.1-3.1-0.3V15.3c1-0.2,2.2-0.4,3.6-0.6c1.4-0.1,2.7-0.2,4-0.2
			c4.1,0,7.2,0.8,9.3,2.4c2.1,1.6,3.1,4.1,3.1,7.4c0,2.3-0.5,4.2-1.5,5.7c-1,1.4-2.5,2.5-4.5,3.2c-2,0.7-4.5,1-7.6,1
			C171.8,34.2,170.7,34.2,169.6,34.1z M178,29.3c1-0.4,1.7-1,2.1-1.8c0.5-0.8,0.7-1.9,0.7-3.2c0-1.9-0.5-3.3-1.6-4.2
			c-1.1-0.9-2.7-1.3-5-1.3c-0.7,0-1.5,0.1-2.4,0.2v10.9c0.6,0.1,1.4,0.1,2.4,0.1C175.8,29.9,177.1,29.7,178,29.3z"/>
	</g>
	<g>
		<path class="st0" d="M123,59.1V46.8h-5.2v-2.2h13.3v2.2h-5.2v12.3H123z"/>
		<path class="st0" d="M138.3,48.7c0.8,0.3,1.3,0.7,1.7,1.4c0.4,0.7,0.6,1.5,0.6,2.7v6.4h-2.3L138,58h-0.1c-0.4,0.4-0.9,0.7-1.5,0.9
			s-1.2,0.3-1.9,0.3c-0.8,0-1.5-0.1-2.1-0.4c-0.6-0.3-1-0.6-1.3-1.1s-0.4-1-0.4-1.6c0-1,0.4-1.7,1.1-2.3c0.8-0.5,1.9-0.9,3.6-1
			l2.4-0.2v-0.2c0-0.6-0.1-1-0.3-1.4c-0.2-0.3-0.5-0.6-0.9-0.7c-0.4-0.1-1-0.2-1.7-0.2c-0.5,0-1,0-1.6,0.1c-0.6,0.1-1.1,0.2-1.7,0.4
			v-2c0.5-0.2,1.2-0.3,1.8-0.4c0.7-0.1,1.3-0.1,1.9-0.1C136.6,48.2,137.5,48.4,138.3,48.7z M136.7,57.2c0.4-0.2,0.8-0.4,1.2-0.7
			v-2.2l-2.2,0.2c-0.8,0.1-1.3,0.2-1.7,0.5c-0.3,0.2-0.5,0.6-0.5,1s0.2,0.8,0.5,1c0.3,0.2,0.8,0.4,1.4,0.4
			C135.8,57.4,136.2,57.4,136.7,57.2z"/>
		<path class="st0" d="M143.4,48.4h2.3l0.2,1.1h0.1c0.5-0.4,1-0.7,1.7-1c0.6-0.2,1.3-0.3,2-0.3c1.3,0,2.3,0.4,3.1,1.1
			s1.1,1.9,1.1,3.4v6.4h-2.8v-6.2c0-0.8-0.2-1.4-0.5-1.8c-0.4-0.4-0.9-0.5-1.6-0.5c-0.5,0-1,0.1-1.5,0.3s-0.9,0.5-1.3,0.8v7.4h-2.8
			V48.4z"/>
		<path class="st0" d="M156.9,63.1v-2.1c1.4,0.4,2.7,0.6,3.9,0.6c0.9,0,1.6-0.1,2.1-0.3c0.5-0.2,0.9-0.5,1.2-0.9
			c0.2-0.4,0.4-1,0.4-1.7v-0.7h-0.1c-0.4,0.4-0.9,0.7-1.5,0.9c-0.6,0.2-1.2,0.3-1.9,0.3c-0.9,0-1.7-0.2-2.4-0.6
			c-0.7-0.4-1.3-1-1.7-1.7c-0.4-0.8-0.6-1.7-0.6-2.9c0-1.8,0.6-3.3,1.7-4.3s2.7-1.5,4.9-1.5c0.8,0,1.5,0.1,2.3,0.2
			c0.8,0.1,1.5,0.3,2.2,0.4v9.3c0,1.3-0.2,2.3-0.7,3.1c-0.4,0.8-1.1,1.4-2,1.8s-2.1,0.6-3.5,0.6C159.6,63.6,158.2,63.4,156.9,63.1z
			 M163.2,56.7c0.5-0.2,0.8-0.4,1.2-0.7v-5.4c-0.6-0.1-1.3-0.2-2-0.2c-2.3,0-3.5,1.1-3.5,3.4c0,1.1,0.3,1.9,0.8,2.4
			c0.5,0.5,1.2,0.8,2.1,0.8C162.3,56.9,162.8,56.9,163.2,56.7z"/>
		<path class="st0" d="M180,54.5h-7.6c0,0.7,0.2,1.2,0.5,1.6s0.7,0.7,1.2,0.9c0.6,0.2,1.3,0.3,2.2,0.3c0.9,0,1.9-0.1,3-0.4v2
			c-1.1,0.3-2.3,0.4-3.4,0.4c-2.1,0-3.7-0.4-4.7-1.3c-1-0.9-1.6-2.3-1.6-4.2c0-1.2,0.2-2.2,0.6-3c0.4-0.8,1-1.5,1.8-1.9
			c0.8-0.4,1.8-0.7,2.9-0.7c1.6,0,2.9,0.5,3.7,1.5c0.9,1,1.3,2.4,1.3,4.2V54.5z M173,50.7c-0.4,0.5-0.7,1.2-0.7,2.3h5.1
			c0-1-0.2-1.8-0.7-2.3c-0.4-0.5-1-0.7-1.9-0.7C174.1,50,173.5,50.2,173,50.7z"/>
		<path class="st0" d="M182.3,48.4h2.3l0.2,1.3h0.1c0.4-0.5,0.8-0.8,1.4-1.1c0.6-0.3,1.2-0.4,1.9-0.4c0.4,0,0.7,0,1,0.1v2.5
			c-0.3-0.1-0.7-0.1-1.2-0.1c-0.5,0-1.1,0.1-1.7,0.3c-0.6,0.2-1,0.5-1.3,0.9v7.2h-2.8V48.4z"/>
	</g>
	<g>
		<path class="st0" d="M128.5,68.9h2.3v12.7h-2.5l-6.9-9.3v9.3H119V68.9h2.5l6.9,9.3V68.9z"/>
		<path class="st0" d="M135.4,81.3c-0.7-0.4-1.3-0.9-1.7-1.6S133,78,133,77s0.2-1.9,0.6-2.7s1-1.3,1.7-1.6s1.6-0.5,2.7-0.5
			c1,0,1.9,0.2,2.7,0.5c0.7,0.4,1.3,0.9,1.7,1.6c0.4,0.7,0.6,1.6,0.6,2.7c0,1-0.2,1.9-0.6,2.6c-0.4,0.7-1,1.3-1.7,1.6
			c-0.7,0.4-1.6,0.6-2.6,0.6C137,81.8,136.1,81.6,135.4,81.3z M140.6,77c0-1-0.2-1.8-0.7-2.3S138.8,74,138,74
			c-0.8,0-1.5,0.2-1.9,0.7c-0.4,0.5-0.7,1.2-0.7,2.2c0,2,0.8,3,2.5,3C139.7,79.9,140.6,78.9,140.6,77z"/>
		<path class="st0" d="M152.1,72.3h2.4l-4,9.4h-3l-4-9.4h2.6l3,7.3L152.1,72.3z"/>
		<path class="st0" d="M164.3,77.6h-6.7c0,0.6,0.2,1,0.4,1.4c0.2,0.4,0.6,0.6,1.1,0.8c0.5,0.2,1.1,0.2,2,0.2c0.8,0,1.7-0.1,2.7-0.3
			v1.7c-1,0.2-2,0.4-3,0.4c-1.9,0-3.2-0.4-4.1-1.2s-1.4-2-1.4-3.6c0-1,0.2-1.9,0.5-2.6c0.4-0.7,0.9-1.3,1.6-1.7s1.5-0.6,2.5-0.6
			c1.4,0,2.5,0.4,3.3,1.3c0.8,0.9,1.1,2.1,1.1,3.6V77.6z M158.3,74.3c-0.4,0.4-0.6,1.1-0.6,2h4.4c0-0.9-0.2-1.6-0.6-2
			s-0.9-0.6-1.6-0.6S158.6,73.9,158.3,74.3z"/>
		<path class="st0" d="M179.9,73.1c0.6,0.6,0.9,1.6,0.9,2.9v5.6h-2.4v-5.5c0-0.7-0.1-1.2-0.4-1.5s-0.7-0.5-1.2-0.5
			c-0.4,0-0.8,0.1-1.1,0.2c-0.3,0.1-0.6,0.4-0.9,0.7c0,0.3,0.1,0.6,0.1,1v5.6h-2.4v-5.5c0-0.7-0.1-1.2-0.4-1.5
			c-0.3-0.3-0.7-0.5-1.2-0.5c-0.4,0-0.8,0.1-1.2,0.3c-0.4,0.2-0.7,0.4-0.9,0.7v6.5h-2.4v-9.4h2l0.2,1h0.1c0.4-0.4,0.8-0.6,1.3-0.8
			c0.5-0.2,1-0.3,1.6-0.3c0.6,0,1.1,0.1,1.6,0.3c0.5,0.2,0.8,0.5,1.1,1c0.5-0.4,1-0.8,1.5-1c0.5-0.2,1.1-0.3,1.7-0.3
			C178.5,72.1,179.3,72.4,179.9,73.1z"/>
		<path class="st0" d="M183.3,81.3V67.8h2.4v5.4h0.1c0.4-0.4,0.8-0.6,1.3-0.8c0.5-0.2,1.1-0.3,1.7-0.3c0.8,0,1.5,0.2,2.1,0.5
			c0.6,0.3,1.1,0.8,1.5,1.5s0.5,1.5,0.5,2.6c0,1.7-0.5,2.9-1.4,3.8c-1,0.9-2.4,1.3-4.3,1.3C185.8,81.8,184.5,81.6,183.3,81.3z
			 M189.8,79.2c0.5-0.5,0.8-1.3,0.8-2.3c0-1-0.2-1.7-0.7-2.2c-0.4-0.4-1.1-0.7-1.9-0.7c-0.4,0-0.8,0.1-1.2,0.2
			c-0.4,0.1-0.7,0.3-1,0.6v4.8c0.5,0.1,1.1,0.2,1.7,0.2C188.5,80,189.3,79.7,189.8,79.2z"/>
		<path class="st0" d="M195.1,72.3h2l0.2,1.2h0.1c0.3-0.4,0.7-0.7,1.2-0.9c0.5-0.2,1.1-0.3,1.6-0.3c0.3,0,0.6,0,0.9,0.1v2.1
			c-0.3-0.1-0.6-0.1-1-0.1c-0.5,0-1,0.1-1.5,0.3c-0.5,0.2-0.9,0.4-1.2,0.8v6.3h-2.4V72.3z"/>
		<path class="st0" d="M211,77.6h-6.7c0,0.6,0.2,1,0.4,1.4c0.2,0.4,0.6,0.6,1.1,0.8c0.5,0.2,1.1,0.2,2,0.2c0.8,0,1.7-0.1,2.7-0.3
			v1.7c-1,0.2-2,0.4-3,0.4c-1.9,0-3.2-0.4-4.1-1.2s-1.4-2-1.4-3.6c0-1,0.2-1.9,0.5-2.6c0.4-0.7,0.9-1.3,1.6-1.7s1.5-0.6,2.5-0.6
			c1.4,0,2.5,0.4,3.3,1.3c0.8,0.9,1.1,2.1,1.1,3.6V77.6z M204.9,74.3c-0.4,0.4-0.6,1.1-0.6,2h4.4c0-0.9-0.2-1.6-0.6-2
			s-0.9-0.6-1.6-0.6S205.3,73.9,204.9,74.3z"/>
		<path class="st0" d="M226.1,79.7v2h-9v-1.3l4.1-4.5c0.6-0.7,1.1-1.3,1.4-1.8c0.3-0.5,0.4-0.9,0.4-1.4c0-0.7-0.2-1.2-0.6-1.5
			c-0.4-0.3-1.1-0.5-2.1-0.5c-0.6,0-1.2,0-1.7,0.2c-0.6,0.1-1.1,0.2-1.6,0.4v-2c0.4-0.1,1-0.3,1.6-0.4s1.2-0.1,1.8-0.1
			c1.7,0,2.9,0.3,3.8,0.9c0.8,0.6,1.2,1.5,1.2,2.7c0,0.5-0.1,0.9-0.2,1.4c-0.1,0.4-0.4,0.9-0.7,1.4s-0.7,1-1.3,1.6l-2.8,3H226.1z"/>
		<path class="st0" d="M229,80.2c-0.9-1.1-1.4-2.7-1.4-4.9c0-2.2,0.5-3.8,1.4-4.9c0.9-1.1,2.2-1.6,3.9-1.6c1.7,0,3,0.5,3.9,1.6
			c0.9,1.1,1.4,2.7,1.4,4.9c0,1.5-0.2,2.7-0.6,3.7s-1,1.7-1.8,2.1s-1.7,0.7-2.8,0.7C231.2,81.8,229.9,81.3,229,80.2z M234.5,79.4
			c0.4-0.3,0.8-0.8,1-1.4s0.3-1.5,0.3-2.7c0-1.1-0.1-2-0.3-2.7c-0.2-0.7-0.6-1.1-1-1.4c-0.4-0.3-0.9-0.4-1.6-0.4
			c-0.6,0-1.1,0.1-1.6,0.4c-0.4,0.3-0.8,0.7-1,1.4c-0.2,0.7-0.3,1.5-0.3,2.7c0,1.1,0.1,2,0.3,2.7c0.2,0.7,0.6,1.1,1,1.4
			c0.4,0.3,0.9,0.4,1.6,0.4C233.5,79.8,234,79.6,234.5,79.4z"/>
		<path class="st0" d="M244,68.9h1.7v12.7h-2.5v-9.8l-3.7,2.7v-2.3L244,68.9z"/>
		<path class="st0" d="M255.3,69.4c0.8,0.4,1.4,1.1,1.8,2s0.6,2,0.6,3.4c0,2.3-0.5,4-1.6,5.2c-1.1,1.2-2.7,1.8-4.8,1.8
			c-1.2,0-2.1-0.1-2.9-0.4v-1.8c0.4,0.1,0.8,0.3,1.3,0.3c0.5,0.1,1,0.1,1.4,0.1c2.7,0,4.1-1.4,4.2-4.3c-0.4,0.2-0.9,0.4-1.5,0.6
			c-0.6,0.1-1.1,0.2-1.7,0.2c-1.4,0-2.5-0.3-3.3-1c-0.8-0.6-1.2-1.6-1.2-2.9c0-0.8,0.2-1.5,0.6-2.1c0.4-0.6,0.9-1,1.6-1.3
			c0.7-0.3,1.5-0.5,2.5-0.5C253.5,68.8,254.5,69,255.3,69.4z M250.7,74.2c0.5,0.4,1.1,0.5,2,0.5c0.5,0,0.9-0.1,1.4-0.2
			s0.9-0.3,1.3-0.5c-0.1-1.3-0.3-2.2-0.8-2.7c-0.5-0.6-1.2-0.8-2.1-0.8c-0.8,0-1.3,0.2-1.8,0.5c-0.4,0.4-0.6,0.9-0.6,1.6
			C250,73.3,250.2,73.9,250.7,74.2z"/>
	</g>
	<path class="st0" d="M196.4,35.7"/>
</g>
</svg>
