<svg xmlns="http://www.w3.org/2000/svg" width="50" height="75" viewBox="0 0 50 75">
    <g fill="#2C343B" fill-rule="nonzero">
        <path d="M25 7.5C15.35 7.5 7.5 15.35 7.5 25S15.35 42.5 25 42.5 42.5 34.65 42.5 25 34.65 7.5 25 7.5M25 45C13.973 45 5 36.028 5 25 5 13.973 13.973 5 25 5c11.028 0 20 8.973 20 20 0 11.028-8.972 20-20 20"/>
        <path d="M14.659 39.112A17.518 17.518 0 0 0 25 42.5c3.721 0 7.353-1.196 10.341-3.388a3.442 3.442 0 0 0-.94-.75l-5.335-2.91c-.713-.39-1.566-1.228-1.566-3.01v-2.186c0-.335.134-.656.374-.891.014-.014 1.654-1.666 2.157-3.862.073-.318.267-.594.54-.77.458-.297.624-.48.68-.556v-2.036c-.11-.096-.28-.22-.383-.296a6.256 6.256 0 0 1-.457-.359 1.254 1.254 0 0 1-.41-.927V17.1c.003-.108.11-1.976-1.093-3.26-.834-.89-2.148-1.341-3.908-1.341-1.655 0-2.92.44-3.759 1.306C19.973 15.118 20 17.041 20 17.06L20 20.559c0 .354-.15.69-.411.927-.119.108-.28.229-.456.359-.104.076-.273.2-.383.296v2.037c.055.075.221.258.679.555.274.176.466.452.54.77.501 2.184 2.141 3.846 2.157 3.862.24.235.374.556.374.891v2.187c0 1.78-.852 2.62-1.566 3.01l-5.335 2.91a3.442 3.442 0 0 0-.94.75M25 45a20.018 20.018 0 0 1-12.814-4.65 1.25 1.25 0 0 1-.323-1.504 6.011 6.011 0 0 1 2.538-2.678l5.335-2.91c.065-.036.264-.144.264-.816v-1.7c-.601-.692-1.769-2.22-2.341-4.192-.58-.429-1.409-1.203-1.409-2.274v-2.391c0-.935.703-1.533 1.25-1.943v-2.84c-.002-.08-.072-2.948 1.945-5.033C20.774 10.696 22.643 10 25 10c2.495 0 4.433.726 5.758 2.16 1.943 2.1 1.747 4.919 1.738 5.038l.003 2.744c.547.41 1.251 1.008 1.251 1.943v2.391c0 1.072-.829 1.845-1.409 2.274-.572 1.973-1.74 3.5-2.34 4.192v1.7c0 .672.198.78.263.816l5.335 2.91a6.011 6.011 0 0 1 2.539 2.678 1.25 1.25 0 0 1-.324 1.504A20.018 20.018 0 0 1 25 45"/>
        <path d="M3.75 2.5c-.689 0-1.25.561-1.25 1.25v67.5c0 .689.561 1.25 1.25 1.25h42.5c.689 0 1.25-.561 1.25-1.25V3.75c0-.689-.561-1.25-1.25-1.25H3.75zM46.25 75H3.75A3.755 3.755 0 0 1 0 71.25V3.75A3.755 3.755 0 0 1 3.75 0h42.5A3.755 3.755 0 0 1 50 3.75v67.5A3.755 3.755 0 0 1 46.25 75z"/>
        <path d="M35 50H15a1.25 1.25 0 0 1 0-2.5h20a1.25 1.25 0 0 1 0 2.5M16.25 57.5h-7.5a1.25 1.25 0 0 1 0-2.5h7.5a1.25 1.25 0 0 1 0 2.5M18.75 62.5h-10a1.25 1.25 0 0 1 0-2.5h10a1.25 1.25 0 0 1 0 2.5M38.75 62.5h-7.5a1.25 1.25 0 0 1 0-2.5h7.5a1.25 1.25 0 0 1 0 2.5M41.25 57.5h-10a1.25 1.25 0 0 1 0-2.5h10a1.25 1.25 0 0 1 0 2.5M11.25 72.5h27.5V70h-27.5v2.5zM40 75H10c-.69 0-1.25-.56-1.25-1.25v-5c0-.69.56-1.25 1.25-1.25h30c.69 0 1.25.56 1.25 1.25v5c0 .69-.56 1.25-1.25 1.25z"/>
    </g>
</svg>
