<svg xmlns="http://www.w3.org/2000/svg" xmlns:xlink="http://www.w3.org/1999/xlink" width="264" height="76" viewBox="0 0 264 76">
    <defs>
        <path id="a" d="M.657.22H25.78V34H.657z"/>
        <path id="c" d="M0 .558h33.78v25.124H0z"/>
        <path id="e" d="M.319.573h25.123V34.68H.32z"/>
        <path id="g" d="M0 77h264V1H0z"/>
    </defs>
    <g fill="none" fill-rule="evenodd">
        <path fill="#FFF" d="M62.174 9.783c-.983-.895-2.621-.612-3.557.566-.515.66-.75 1.414-.702 2.167C53.608 9.454 47.85 7.71 41.578 8.04c-6.68.365-12.506 3.057-16.455 6.992-.34.34.086.88.56.58 1.94-1.23 4.187-2.245 6.695-3.035.735-.232 1.116.063 1.116.505 0 .443.354 16.857.354 16.857s-.411-.239-.411-.232v.232h1.113l2.534-9.454c.138-.504.895-.562 1.044-.067.054.176 2.735 9.03 2.798 9.263.13.476.705.405.705-.121 0-.457.685-17.352.706-17.979.021-.626.248-.895 1.113-.944 7-.399 12.896 1.889 15.789 4.014.916.673 2.441-.126 3.137-1.098.894-1.247.828-2.921-.202-3.77"/>
        <path fill="#FFF" d="M75.99 35.21c-.067-1.306-1.421-2.253-2.907-2.09-.826.098-1.52.457-2.015 1.013-.891-5.128-3.732-10.352-8.389-14.499-4.97-4.406-10.967-6.605-16.51-6.634-.478-.003-.556.67-.011.793 2.23.5 4.527 1.365 6.85 2.566.681.353.946.622.636.929-.31.306-11.359 11.726-11.359 11.726l-.114.113-.112.112c-.207.245.17.618.493.487v.001l8.325-4.694c.45-.252.98.278.739.727-.086.16-4.422 8.186-4.54 8.392-.243.42.202.784.57.419.32-.316 12.638-11.538 13.092-11.958.454-.42.8-.445 1.445.124 5.218 4.608 7.774 10.306 8.326 13.797.174 1.105 1.81 1.616 2.981 1.428 1.506-.24 2.632-1.446 2.5-2.752"/>
        <path fill="#FFF" d="M66.216 63.174c.895-.983.613-2.621-.566-3.557-.66-.515-1.415-.75-2.17-.702 3.066-4.307 4.81-10.065 4.48-16.337-.366-6.68-3.06-12.506-6.997-16.455-.34-.34-.88.086-.58.56 1.23 1.94 2.246 4.187 3.037 6.694.232.736.009 1.117-.435 1.117-.442 0-16.794.355-16.794.355v-.001s.095-.259.088-.259h-.088v.961l9.388 2.534c.503.138.527.895.032 1.045-.177.053-9.055 2.734-9.288 2.797-.476.131-.415.705.113.705.456 0 17.357.686 17.984.706.627.021.894.248.943 1.113.4 7-1.89 12.897-4.017 15.79-.674.915.126 2.44 1.097 3.136 1.25.894 2.924.828 3.773-.202"/>
        <g transform="translate(37 42)">
            <mask id="b" fill="#fff">
                <use xlink:href="#a"/>
            </mask>
            <path fill="#FFF" d="M3.46 33.99c1.314-.066 2.265-1.412 2.1-2.888-.098-.82-.458-1.51-1.016-2.002 5.152-.886 10.402-3.708 14.57-8.335 4.428-4.938 6.637-10.897 6.666-16.404.003-.475-.673-.552-.796-.011-.504 2.216-1.373 4.498-2.58 6.806-.354.677-.625.94-.933.632A9421.779 9421.779 0 0 0 9.688.503V.502L9.574.39 9.46.278c-.245-.206-.62.17-.49.49l4.717 8.271c.253.446-.28.973-.73.734-.16-.085-8.227-4.393-8.434-4.511-.423-.24-.788.201-.42.568.317.317 11.594 12.556 12.016 13.007.422.45.448.794-.125 1.435-4.63 5.185-10.357 7.724-13.865 8.272-1.11.173-1.623 1.798-1.435 2.962.242 1.496 1.453 2.614 2.766 2.484" mask="url(#b)"/>
        </g>
        <path fill="#FFF" d="M12.826 67.214c.983.897 2.621.613 3.558-.566.514-.661.748-1.416.701-2.17 4.307 3.066 10.065 4.812 16.338 4.482 6.68-.367 12.505-3.062 16.454-7.001.34-.34-.086-.882-.56-.58-1.94 1.23-4.187 2.246-6.694 3.038-.736.232-1.117.085-1.117-.358s-.354-16.729-.354-16.729.402.055.402.048v-.048H40.45l-2.534 9.318c-.138.503-.894.488-1.044-.008-.054-.176-2.735-9.08-2.798-9.312-.13-.477-.705-.426-.705.102 0 .457-.685 17.365-.706 17.992-.021.628-.248.893-1.113.942-7 .4-12.896-1.894-15.789-4.022-.916-.674-2.44.126-3.137 1.099-.894 1.248-.828 2.923.202 3.773"/>
        <g transform="translate(0 38)">
            <mask id="d" fill="#fff">
                <use xlink:href="#c"/>
            </mask>
            <path fill="#FFF" d="M.01 3.362c.066 1.313 1.412 2.264 2.888 2.1.821-.098 1.51-.46 2.002-1.017.886 5.152 3.708 10.403 8.335 14.57 4.938 4.427 10.896 6.637 16.404 6.667.475.002.552-.674.01-.797-2.215-.504-4.497-1.373-6.805-2.58-.677-.354-.94-.625-.632-.933.308-.308 11.285-11.783 11.285-11.783l.113-.114.112-.113c.206-.245-.17-.621-.489-.49h-.001l-8.27 4.717c-.448.253-.975-.28-.735-.73.085-.16 4.393-8.227 4.51-8.433.241-.424-.2-.788-.567-.422-.318.318-12.556 11.596-13.006 12.017-.452.422-.795.447-1.436-.125C8.543 11.266 6.004 5.54 5.456 2.032 5.283.922 3.657.408 2.494.596.998.838-.121 2.05.01 3.362" mask="url(#d)"/>
        </g>
        <path fill="#FFF" d="M8.785 13.826c-.896.983-.613 2.621.566 3.557.66.515 1.415.75 2.17.703C8.455 22.392 6.71 28.15 7.04 34.422c.366 6.68 3.06 12.507 6.997 16.455.34.34.88-.086.58-.56-1.23-1.94-2.245-4.187-3.037-6.694-.231-.735-.013-1.117.43-1.117.442 0 16.79-.354 16.79-.354s-.198.554-.192.554h.192V41.45l-9.384-2.534c-.503-.138-.524-.895-.028-1.045.176-.053 9.056-2.734 9.289-2.797.476-.13.415-.705-.112-.705-.457 0-17.358-.685-17.985-.706-.627-.021-.894-.248-.943-1.113-.399-7 1.891-12.897 4.018-15.789.673-.915-.127-2.442-1.098-3.137-1.248-.894-2.923-.828-3.772.202"/>
        <g transform="translate(12)">
            <mask id="f" fill="#fff">
                <use xlink:href="#e"/>
            </mask>
            <path fill="#FFF" d="M22.638.584c-1.313.067-2.264 1.424-2.1 2.915.099.829.46 1.525 1.017 2.021-5.152.895-10.402 3.744-14.57 8.416-4.428 4.985-6.637 11-6.666 16.56-.002.48.673.559.796.012.504-2.237 1.373-4.541 2.58-6.871.354-.684.625-.95.933-.638.308.31 11.783 11.394 11.783 11.394s.109.11.114.113l.113.113c.245.208.621-.17.49-.494v-.001l-4.717-8.35c-.253-.45.28-.983.73-.741.161.086 8.227 4.435 8.434 4.554.423.243.788-.202.421-.573-.318-.32-11.595-12.676-12.017-13.132-.422-.455-.448-.802.125-1.449 4.63-5.234 10.357-7.799 13.865-8.351 1.11-.175 1.623-1.816 1.435-2.99-.242-1.512-1.453-2.64-2.766-2.508" mask="url(#f)"/>
        </g>
        <path fill="#FFF" d="M85.283 16.098v51.325"/>
        <path stroke="#FFF" d="M85.283 16.098v51.325"/>
        <path fill="#FFF" d="M195.908 14.038c-5.703-.456-6.11 3.283-6.11 5.088 0 1.725 2.436 3.74 2.436 5.597 0 2.815-3.084 3-3.48 3-2.7 0-3.687-2.41-3.687-3.194-.891 0-2.067 1.06-2.067 1.47 0 1.166 1.767 2.65 4.33 2.943 3.266.373 6.88-1.02 6.88-5.259 0-1.69-2.278-4.155-2.77-5.037-.199-.392-.298-.687-.298-1.079 0-.686.659-2.058 2.68-2.058.795 0 1.29.293 1.59.882.099.098.198.098.297-.098.1-.196 1.191-1.373 1.291-1.568 0-.49-.4-.632-1.092-.687"/>
        <path fill="#FFF" d="M157.803 29.288c-.534 0-.704-.214-.704-.606 0-2.429 5.745-11.538 11-12.216-.367.943-.674 1.904-1.367 3.02-1.78 2.643-7.323 9.802-8.93 9.802M187 17.038c0-.392-.477-1.666-1.03-1.95-.389-.232-1.772 2.538-2.255 3.518a986.988 986.988 0 0 1-2.61 4.998c-.676 1.47-.595 1.293-.898 1.754-.339.516-3.426 2.847-4.409 2.847-.482 0-.716-.296-.676-.784.085-1.031.396-1.948 1.442-3.817.965-1.725 2.222-3.822 3.768-6.566.56-.857-1.538-.546-2.145.242-.084.109-3.073 4.952-4.136 6.618-.246.386-.457.748-.642 1.092-.882.887-1.68 1.666-2.534 2.375-.967.882-1.933 1.568-2.9 2.058-.869.49-1.642.784-2.319.784-.58 0-.799.061-.992-.233a1.671 1.671 0 0 1-.29-.98c0-.98.483-2.45 1.353-4.508.966-2.058 5.508-10.192 5.702-10.388l-.097-.098s-1.478.14-2.223.882c-.195.195-.387.49-.58.882-2.056-.131-3.338.35-4.98 1.33-1.643.98-3.137 2.492-4.393 3.864-1.16 1.47-2.223 2.94-2.996 4.41-.773 1.47-1.16 2.744-1.16 3.724 0 .882.468 1.774 1.739 1.774 3.517 0 6.955-5.968 7.536-6.653-.774 1.176-.867 1.547-1.254 2.527-.386 1.078-.58 1.862-.58 2.45 0 1.927 1.353 2.254 2.223 2.254.966 0 1.933-.294 3.092-.882 1.16-.588 2.32-1.372 3.479-2.352.474-.369.917-.76 1.351-1.162-.052.244-.081.47-.081.672 0 .49.097.882.483 1.176.387.294.87.392 1.45.392.87 0 1.642-.294 2.32-.588.869-.49 1.449-.882 1.932-1.274 0 0 .096-.099.193-.099.096 0 .096 0 0 .197-1.064 1.863-7.763 11.59-13.127 11.59-5.004 0-5.975-3.601-6.071-3.21-.097.392-.713 5.096 4.542 5.096 12.462 0 21.807-22.198 22.193-22.785.387-.589.58-.98.58-1.177M113.5 13h5.5v16h-4.24V18.514l-3.87 8.14h-3.77l-3.87-7.751V29H99V13h5.511l4.555 9.373zM126.34 25.649H135V29h-13V13h12.894v3.351h-8.554v2.8h7.44v3.352h-7.44zM147.846 25.056c.824-.315 1.432-.807 1.825-1.476.392-.669.59-1.538.59-2.606 0-1.558-.457-2.701-1.37-3.43-.912-.729-2.32-1.094-4.226-1.094-.617 0-1.288.057-2.015.17v8.844c.483.043 1.15.065 2.003.065 1.305 0 2.37-.158 3.193-.473m-7.17 3.876a37.434 37.434 0 0 1-2.676-.218V13.626c.86-.191 1.882-.343 3.065-.456a35.523 35.523 0 0 1 3.387-.17c3.502 0 6.134.656 7.9 1.97 1.766 1.312 2.648 3.325 2.648 6.036 0 1.889-.422 3.42-1.268 4.591-.846 1.172-2.12 2.032-3.821 2.58-1.703.549-3.871.823-6.504.823-.86 0-1.772-.023-2.732-.068M101.334 50V39.856H97V38h11v1.856h-4.334V50zM112.851 48.307c.346-.123.66-.306.943-.551v-1.813l-1.783.16c-.634.064-1.087.195-1.358.395-.271.2-.407.48-.407.843 0 .362.127.644.383.846.256.202.64.304 1.151.304.367 0 .724-.061 1.071-.184m1.322-6.964c.616.229 1.074.61 1.375 1.142.301.532.452 1.26.452 2.18v5.183h-1.879l-.151-.878h-.112a3.2 3.2 0 0 1-1.199.763c-.48.178-.993.267-1.542.267-.666 0-1.232-.104-1.698-.311-.467-.207-.82-.498-1.06-.87-.24-.374-.359-.807-.359-1.302 0-.8.306-1.418.92-1.858.612-.439 1.581-.706 2.908-.802l1.966-.184v-.176c0-.473-.083-.842-.248-1.106-.165-.263-.42-.45-.763-.562-.343-.112-.806-.168-1.387-.168a9.607 9.607 0 0 0-2.677.399v-1.637a9.004 9.004 0 0 1 1.482-.315c.54-.073 1.06-.108 1.555-.108.997 0 1.802.114 2.417.343M119 41.138h1.953l.152.925h.118a4.535 4.535 0 0 1 1.444-.788 5.434 5.434 0 0 1 1.738-.275c1.117 0 1.995.301 2.635.906.64.603.96 1.542.96 2.814V50h-2.374v-5.175c0-.677-.156-1.161-.467-1.453-.312-.293-.774-.44-1.385-.44-.438 0-.872.08-1.301.237-.43.156-.796.389-1.099.698V50H119v-8.862zM134.77 47.147a2.66 2.66 0 0 0 .97-.606v-4.576a6.547 6.547 0 0 0-1.61-.19c-1.919 0-2.878.964-2.878 2.893 0 .94.21 1.62.63 2.043.42.423 1 .635 1.742.635a3.36 3.36 0 0 0 1.146-.2m-5.153 5.406v-1.815c1.133.326 2.19.489 3.174.489.706 0 1.273-.083 1.703-.249.43-.166.745-.427.945-.783.201-.357.301-.828.301-1.414v-.605h-.112a3.443 3.443 0 0 1-1.21.783c-.465.18-.98.27-1.547.27-.727 0-1.383-.162-1.968-.485-.585-.324-1.047-.814-1.39-1.472-.342-.658-.513-1.462-.513-2.413 0-1.564.451-2.765 1.355-3.602.902-.837 2.228-1.256 3.975-1.256.62 0 1.253.044 1.9.133.645.088 1.236.212 1.77.373v7.843c0 1.083-.182 1.968-.544 2.653-.364.685-.919 1.19-1.664 1.513-.745.323-1.698.485-2.857.485-1.18 0-2.287-.15-3.318-.448M142.964 43.007c-.37.396-.568 1.01-.59 1.838h4.397c-.023-.829-.216-1.442-.578-1.838-.364-.397-.9-.595-1.608-.595-.71 0-1.25.198-1.62.595zM149 46.123h-6.618c.034.536.168.969.404 1.295.235.328.597.567 1.084.718.489.152 1.134.228 1.94.228.788 0 1.667-.104 2.636-.311v1.62a13.79 13.79 0 0 1-2.985.327c-1.842 0-3.214-.366-4.112-1.098-.9-.73-1.349-1.863-1.349-3.394 0-.947.18-1.758.54-2.433.36-.676.888-1.19 1.583-1.544.694-.354 1.53-.531 2.505-.531 1.418 0 2.5.396 3.25 1.19.747.791 1.122 1.919 1.122 3.381v.552zM151 41.106h1.955l.186 1.1h.119a3.086 3.086 0 0 1 1.227-.892 4.16 4.16 0 0 1 1.616-.314c.322 0 .62.024.897.073v2.038a6.09 6.09 0 0 0-1.024-.073c-.474 0-.95.082-1.43.244-.48.163-.866.406-1.16.725V50H151v-8.894zM101.664 57H103v11h-1.99v-8.46L98 61.844v-2.022zM111.382 63.163c.412.427.618.992.618 1.692 0 .995-.387 1.768-1.162 2.319-.774.55-1.967.826-3.577.826a12.75 12.75 0 0 1-1.695-.112 11.815 11.815 0 0 1-1.566-.316v-1.515c.499.136 1.023.243 1.574.32.551.077 1.08.115 1.589.115.97 0 1.682-.148 2.132-.445.45-.297.675-.734.675-1.308 0-.531-.203-.932-.61-1.203-.408-.27-1.06-.406-1.955-.406h-1.94v-1.514h1.313c.935 0 1.625-.132 2.068-.395.443-.263.664-.66.664-1.192 0-.488-.196-.864-.589-1.127-.392-.263-.979-.395-1.758-.395-.473 0-.959.037-1.457.11a9.165 9.165 0 0 0-1.418.318v-1.522a9.857 9.857 0 0 1 1.456-.3 11.885 11.885 0 0 1 1.6-.113c1.393 0 2.452.252 3.174.754.722.503 1.083 1.21 1.083 2.123 0 .59-.177 1.095-.533 1.517-.355.424-.84.726-1.452.91.764.146 1.353.431 1.766.86"/>
        <mask id="h" fill="#fff">
            <use xlink:href="#g"/>
        </mask>
        <path fill="#FFF" d="M118 65h5v-2h-5zM131.664 57H133v11h-1.99v-8.46L128 61.844v-2.022zM141.691 66.094c.345-.3.518-.74.518-1.319 0-.608-.184-1.064-.556-1.366-.37-.302-.905-.453-1.605-.453a4.268 4.268 0 0 0-2.127.58c.041 1.073.258 1.842.652 2.308.393.466.958.699 1.694.699.604 0 1.08-.15 1.424-.449m1.366-3.786c.629.538.943 1.347.943 2.423 0 .672-.148 1.253-.446 1.743-.297.49-.726.868-1.286 1.13-.561.264-1.227.396-2 .396-.878 0-1.637-.186-2.275-.558-.638-.372-1.13-.94-1.475-1.703-.345-.764-.518-1.717-.518-2.862 0-1.918.434-3.378 1.303-4.377.87-1 2.145-1.5 3.83-1.5.924 0 1.699.124 2.325.37v1.55a5.19 5.19 0 0 0-1.056-.286 6.919 6.919 0 0 0-1.14-.098c-2.181 0-3.298 1.203-3.348 3.609a4.482 4.482 0 0 1 1.174-.471 5.32 5.32 0 0 1 1.337-.174c1.126 0 2.003.27 2.632.808M157.02 58H159v10h-2.118l-5.9-7.331V68H149V58h2.12l5.9 7.331zM167.056 64c0-.851-.176-1.472-.526-1.862-.35-.39-.861-.584-1.53-.584-.664 0-1.173.193-1.526.58-.353.388-.529 1.006-.529 1.852 0 1.645.685 2.468 2.055 2.468s2.056-.818 2.056-2.454m-4.174 3.546a3.186 3.186 0 0 1-1.39-1.354c-.328-.601-.492-1.334-.492-2.2 0-.864.16-1.595.481-2.19.32-.596.78-1.045 1.378-1.348.597-.302 1.31-.454 2.141-.454.835 0 1.55.15 2.15.45a3.11 3.11 0 0 1 1.373 1.34c.318.594.477 1.328.477 2.203 0 .856-.165 1.584-.495 2.185-.33.6-.795 1.054-1.398 1.36-.602.308-1.304.462-2.107.462-.812 0-1.518-.151-2.118-.454M177.037 60H179l-3.288 8h-2.438L170 60h2.119l2.458 6.233zM181.635 61.784c-.33.352-.505.897-.526 1.634h3.91c-.02-.737-.191-1.282-.514-1.634-.323-.352-.8-.528-1.43-.528-.63 0-1.11.176-1.44.528zm5.365 2.77h-5.883c.03.477.15.861.36 1.152.208.29.53.503.963.638.434.135 1.009.202 1.725.202.7 0 1.482-.092 2.344-.276v1.439c-.877.194-1.763.291-2.655.291-1.638 0-2.857-.324-3.656-.975-.798-.65-1.198-1.656-1.198-3.018 0-.841.16-1.562.48-2.162.32-.602.789-1.059 1.406-1.373.617-.315 1.36-.472 2.228-.472 1.26 0 2.223.353 2.888 1.057.665.705.998 1.707.998 3.007v.49zM200.247 60.798c.502.531.753 1.358.753 2.48V68h-1.989v-4.613c0-.593-.12-1.019-.358-1.279-.24-.26-.578-.39-1.014-.39-.326 0-.631.06-.916.181-.284.12-.533.303-.746.548.033.236.05.506.05.809V68h-1.969v-4.613c0-.598-.11-1.025-.334-1.283-.222-.257-.548-.386-.98-.386a2.2 2.2 0 0 0-1.74.845V68H189v-7.877h1.648l.128.823h.1a3.18 3.18 0 0 1 1.087-.7 3.656 3.656 0 0 1 1.35-.246c.483 0 .912.09 1.286.267.374.178.677.447.91.808a3.744 3.744 0 0 1 1.27-.819 3.907 3.907 0 0 1 1.386-.256c.886 0 1.58.266 2.082.798M208.365 66.789c.42-.428.631-1.085.631-1.97 0-.85-.185-1.468-.556-1.852-.37-.384-.886-.575-1.547-.575-.356 0-.697.058-1.023.176a2.383 2.383 0 0 0-.86.535v4.144c.443.123.923.183 1.441.183.855 0 1.494-.213 1.914-.641M203 68.552V57h2.01v4.658h.093a3.08 3.08 0 0 1 1.076-.694 3.854 3.854 0 0 1 1.384-.238c.65 0 1.236.142 1.754.426.518.283.929.72 1.23 1.31.302.588.453 1.323.453 2.203 0 1.423-.4 2.501-1.199 3.235-.798.734-1.977 1.1-3.536 1.1-1.212 0-2.3-.149-3.265-.448M212 60.095h1.63l.154.977h.1a2.579 2.579 0 0 1 1.022-.792c.418-.187.867-.28 1.347-.28.267 0 .517.022.747.066v1.811a4.69 4.69 0 0 0-.853-.065 3.48 3.48 0 0 0-1.192.218c-.4.145-.722.36-.966.644V68H212v-7.905zM220.635 61.784c-.33.352-.505.897-.526 1.634h3.91c-.02-.737-.191-1.282-.514-1.634-.323-.352-.8-.528-1.43-.528-.63 0-1.11.176-1.44.528zm5.365 2.77h-5.883c.03.477.15.861.36 1.152.208.29.53.503.963.638.434.135 1.009.202 1.725.202.7 0 1.482-.092 2.344-.276v1.439c-.877.194-1.763.291-2.655.291-1.638 0-2.857-.324-3.656-.975-.798-.65-1.198-1.656-1.198-3.018 0-.841.16-1.562.48-2.162.32-.602.789-1.059 1.406-1.373.617-.315 1.36-.472 2.228-.472 1.26 0 2.223.353 2.888 1.057.665.705.998 1.707.998 3.007v.49zM238 66.327V68h-7.866v-1.094l3.575-3.859c.562-.607.956-1.116 1.183-1.527.226-.41.339-.81.339-1.196 0-.572-.186-.993-.56-1.262-.372-.269-.975-.404-1.806-.404a8.94 8.94 0 0 0-1.514.129 8.35 8.35 0 0 0-1.351.341V57.44a8.61 8.61 0 0 1 1.4-.315 10.74 10.74 0 0 1 1.608-.125c1.472 0 2.564.255 3.276.763.711.51 1.066 1.287 1.066 2.334 0 .41-.06.802-.179 1.174-.12.372-.315.759-.589 1.16-.274.4-.642.846-1.104 1.335l-2.434 2.56H238zM244.816 65.942c.358-.237.636-.633.832-1.188.196-.556.295-1.302.295-2.24 0-.947-.099-1.7-.295-2.26-.196-.561-.472-.96-.829-1.196-.356-.237-.796-.355-1.319-.355-.518 0-.957.118-1.316.355-.358.237-.636.633-.832 1.188-.197.556-.295 1.303-.295 2.24 0 .946.098 1.7.29 2.26.195.56.472.96.83 1.196.358.237.8.355 1.323.355.519 0 .957-.118 1.316-.355m-4.63.7c-.79-.906-1.186-2.287-1.186-4.142 0-1.86.394-3.242 1.182-4.145.786-.904 1.89-1.355 3.31-1.355 1.426 0 2.533.453 3.323 1.359.79.905 1.185 2.286 1.185 4.141 0 1.246-.183 2.278-.548 3.098-.367.818-.886 1.423-1.556 1.815-.672.391-1.473.587-2.403.587-1.415 0-2.518-.453-3.308-1.358M252.664 57H254v11h-1.99v-8.46L249 61.844v-2.022zM258.347 61.59c.37.302.905.453 1.605.453.362 0 .728-.05 1.101-.149a3.873 3.873 0 0 0 1.026-.43c-.041-1.073-.258-1.842-.652-2.308-.393-.467-.958-.7-1.694-.7-.604 0-1.079.15-1.424.45-.346.299-.518.739-.518 1.318 0 .609.185 1.064.556 1.366m3.66-4.032c.638.372 1.13.94 1.475 1.703.346.762.518 1.717.518 2.862 0 1.918-.435 3.377-1.303 4.377-.87 1-2.145 1.5-3.829 1.5-.924 0-1.7-.124-2.326-.37v-1.55c.316.125.668.22 1.056.286.39.065.769.098 1.14.098 2.182 0 3.298-1.204 3.349-3.609a4.519 4.519 0 0 1-1.174.47 5.298 5.298 0 0 1-1.338.175c-1.126 0-2.003-.27-2.631-.808-.63-.539-.944-1.346-.944-2.424 0-.672.148-1.252.446-1.743.297-.49.726-.867 1.287-1.13.56-.264 1.226-.395 2-.395.878 0 1.636.186 2.275.558" mask="url(#h)"/>
    </g>
</svg>
