<svg id="Calque_1" data-name="Calque 1" xmlns="http://www.w3.org/2000/svg" viewBox="0 0 172.32 64.91"><defs><style>.cls-1,.cls-2,.cls-6{fill:#fff;}.cls-2{font-size:10.71px;letter-spacing:0em;}.cls-2,.cls-6{font-family:Nutmeg-Bold, Nutmeg;font-weight:700;}.cls-3{letter-spacing:0.06em;}.cls-4{letter-spacing:0.06em;}.cls-5{letter-spacing:0.06em;}.cls-6{font-size:8.28px;letter-spacing:0.2em;}.cls-7{letter-spacing:0.16em;}.cls-8{letter-spacing:0.2em;}.cls-9{letter-spacing:0.19em;}</style></defs><title>logo-medays-en</title><path class="cls-1" d="M71.31,9.91a.5.5,0,0,0-.5.5v51.5a.5.5,0,0,0,.5.5.51.51,0,0,0,.5-.5V10.41A.5.5,0,0,0,71.31,9.91Z"/><path class="cls-1" d="M99.16,10.71H96.83a.92.92,0,0,0-.63.32l-5.4,7.73L85.4,11a.92.92,0,0,0-.64-.32H82.44a.5.5,0,0,0-.53.53V26.06a.5.5,0,0,0,.53.53v.11h3.28a.5.5,0,0,0,.53-.53V18.44l3.38,5a.65.65,0,0,0,.64.31h1.16a.65.65,0,0,0,.64-.31l3.39-5v7.62a.5.5,0,0,0,.53.53h3.17a.5.5,0,0,0,.53-.53V11.24A.5.5,0,0,0,99.16,10.71Z"/><path class="cls-1" d="M114.71,10.65H103.28a.5.5,0,0,0-.53.53V26a.5.5,0,0,0,.53.53h11.43a.5.5,0,0,0,.53-.53V23.56a.5.5,0,0,0-.53-.52H107V20.28h6.45a.5.5,0,0,0,.53-.53V17.42a.5.5,0,0,0-.53-.52H107V14h7.72a.5.5,0,0,0,.53-.53V11.18A.5.5,0,0,0,114.71,10.65Z"/><path class="cls-1" d="M131.43,12.72a10,10,0,0,0-6.56-2.11h-6a.5.5,0,0,0-.53.53V26a.5.5,0,0,0,.53.52h6c2.75,0,5-.63,6.56-2.11a7.58,7.58,0,0,0,2.44-5.82A7.1,7.1,0,0,0,131.43,12.72Zm-3.38,9a5.08,5.08,0,0,1-3.39,1.17h-2.12V14.21h2.12a4.57,4.57,0,0,1,3.39,1.16,4.35,4.35,0,0,1,1.27,3.18A4.17,4.17,0,0,1,128.05,21.72Z"/><path class="cls-1" d="M161.4,14.21c-.32.86-.69,1.82-1.09,2.83-.74,1.56-4.61,8.92-7.69,8.92-3.29,0,3.28-9.64,3.6-10.17.52-1-1.8-.84-2.23.11-.43.73-1.83,2.77-3,4.93C149.07,23.1,146.2,26,144,26c-2.75,0,4.13-11,4.45-11.54.53-1.06-1.8-.85-2.23.1a9.6,9.6,0,0,1-.51.83,1,1,0,0,0-1-.83c-7.09-.53-15,12.6-9.31,12.6,1.74,0,3.94-1.58,5.85-3.62-.66,2.05-.49,3.62,1.66,3.62a9.73,9.73,0,0,0,6.72-3.27c-.62,2-.4,3.59,1.86,3.59a7,7,0,0,0,4.95-2.53C154,29,150.58,32.31,146,32.31c-3.71,0-5-2.23-5-1.38,0,.11.64,3.49,5.19,3.49,10.06,0,16-17,16.72-18.73C163.31,14.74,161.72,13.25,161.4,14.21ZM136.63,25.32c-3.17,0,4-10.16,7.52-9.84C146.26,15.58,139.6,25.32,136.63,25.32Z"/><path class="cls-1" d="M172.09,15.05c-4.23-2.86-9.21,1.91-5.08,6.25,3.92,4.13-.21,8.15-5,1.8-.43-.53-2.44,1.06-1.49,2,5.93,5.82,13.24.21,8.16-4.87-3.81-3.71-.43-6.25,2.43-3.39C171.56,17.28,172.83,15.48,172.09,15.05Z"/><path class="cls-1" d="M62.41,28.31a2.59,2.59,0,0,0-1.7.9,22.9,22.9,0,0,0-7.2-12.7,21.54,21.54,0,0,0-14.3-5.8.35.35,0,0,0,0,.7,25.13,25.13,0,0,1,5.9,2.2c.6.3.8.5.5.8s-8.2,8.6-9.6,10c.1-2.1.6-14.6.6-15.1s.2-.8,1-.8c6-.3,11.1,1.6,13.6,3.4.8.6,2.1-.1,2.7-.9a2.31,2.31,0,0,0-.2-3.2,2.18,2.18,0,0,0-3.1.5,3.29,3.29,0,0,0-.6,1.9,22.49,22.49,0,0,0-14.1-3.8,21.57,21.57,0,0,0-14.2,6,.35.35,0,0,0,.5.5,23.72,23.72,0,0,1,5.8-2.6c.6-.2,1,0,1,.3s.2,11,.3,13.7c-1.4-1.5-9.9-10.7-10.3-11.1s-.4-.7.1-1.2a22.28,22.28,0,0,1,12.1-7.2c1-.2,1.4-1.6,1.2-2.6A2.45,2.45,0,0,0,30,0a2.13,2.13,0,0,0-1.8,2.5,2.59,2.59,0,0,0,.9,1.7,22.9,22.9,0,0,0-12.7,7.2,21.54,21.54,0,0,0-5.8,14.3.35.35,0,0,0,.7,0,25.13,25.13,0,0,1,2.2-5.9c.3-.6.5-.8.8-.5s8.6,8.2,10,9.6c-2-.1-14.6-.6-15.1-.6s-.8-.2-.8-1c-.3-6,1.6-11.1,3.4-13.6.6-.8-.1-2.1-.9-2.7a2.31,2.31,0,0,0-3.2.2,2.18,2.18,0,0,0,.5,3.1,3.29,3.29,0,0,0,1.9.6A22.49,22.49,0,0,0,6.31,29a21.57,21.57,0,0,0,6,14.2.35.35,0,0,0,.5-.5,23.72,23.72,0,0,1-2.6-5.8c-.2-.6-.1-1,.3-1s11.4-.2,13.8-.3c-1.5,1.4-10.7,9.9-11.1,10.3s-.7.4-1.2-.1a22.28,22.28,0,0,1-7.2-12.1c-.2-1-1.6-1.4-2.6-1.2A2.45,2.45,0,0,0,0,34.91a2.13,2.13,0,0,0,2.5,1.8,2.59,2.59,0,0,0,1.7-.9,22.9,22.9,0,0,0,7.2,12.7,21.54,21.54,0,0,0,14.3,5.8.35.35,0,0,0,0-.7,25.13,25.13,0,0,1-5.9-2.2c-.6-.3-.8-.5-.5-.8s8.2-8.6,9.6-10c-.1,2.1-.6,14.6-.6,15.1s-.2.8-1,.8c-6,.3-11.1-1.6-13.6-3.4-.8-.6-2.1.1-2.7.9a2.31,2.31,0,0,0,.2,3.2,2.18,2.18,0,0,0,3.1-.5,3.29,3.29,0,0,0,.6-1.9A22.49,22.49,0,0,0,29,58.61a21.57,21.57,0,0,0,14.2-6,.35.35,0,0,0-.5-.5,23.72,23.72,0,0,1-5.8,2.6c-.6.2-1,.2-1-.2s-.3-12-.3-13.9c1.4,1.5,9.9,10.7,10.3,11.1s.4.7-.1,1.2a22.28,22.28,0,0,1-12.1,7.2c-1,.2-1.4,1.6-1.2,2.6a2.45,2.45,0,0,0,2.4,2.2,2.13,2.13,0,0,0,1.8-2.5,2.59,2.59,0,0,0-.9-1.7,22.9,22.9,0,0,0,12.7-7.2,21.54,21.54,0,0,0,5.8-14.3.35.35,0,0,0-.7,0,25.13,25.13,0,0,1-2.2,5.9c-.3.6-.5.8-.8.5s-8.6-8.2-10-9.6c2.1.1,14.6.6,15.1.6s.8.2.8,1c.3,6-1.6,11.1-3.4,13.6-.6.8.1,2.1.9,2.7a2.31,2.31,0,0,0,3.2-.2,2.18,2.18,0,0,0-.5-3.1,3.29,3.29,0,0,0-1.9-.6,22.49,22.49,0,0,0,3.8-14.1,21.57,21.57,0,0,0-6-14.2.35.35,0,0,0-.5.5,23.72,23.72,0,0,1,2.6,5.8c.2.6.1,1-.2,1s-11.5.2-13.8.3c1.5-1.4,10.7-9.9,11.1-10.3s.7-.4,1.2.1a22.28,22.28,0,0,1,7.2,12.1c.2,1,1.6,1.4,2.6,1.2A2.45,2.45,0,0,0,65,30,2.32,2.32,0,0,0,62.41,28.31Zm-18.6-6.4c-.1.1-3.8,7.5-3.9,7.6V30s7.8,2.1,8,2.2c.4.1.5.8.1.9-.2,0-7.7,2.4-7.9,2.4s-.1.1-.2.2-.2.3-.2.5c0,0,4,7.1,4,7.2.2.4-.3.8-.7.6-.1-.1-7.2-3.8-7.3-3.9h-.2c-.1-.2-.5.2-.6.2s-2.1,7.8-2.2,7.9a.49.49,0,0,1-.9,0c0-.2-2.4-7.8-2.4-8a.22.22,0,0,0-.2-.2c0-.2-.3-.3-.5-.2,0,0-7.1,4-7.2,4.1a.44.44,0,0,1-.6-.6c.1-.1,3.8-7.2,3.9-7.3s-.3-.3-.4-.4.1-.3-.6-.4c0,0-7.4-2.1-7.5-2.2-.4-.1-.2-.8.2-.9.2,0,7.9-2.4,8.1-2.4s.2-.1.3-.2a.38.38,0,0,0,.3-.5s-4-7.1-4.1-7.2a.44.44,0,0,1,.6-.6c.1.1,7.2,3.8,7.3,3.9s.2.2.2.2c.1.2.5.8.6,0,0,0,2.1-8,2.2-8.2.1-.4.8-.5.9-.1,0,.2,2.4,7.7,2.4,7.9a1.42,1.42,0,0,0,.2.6c0,.2.3.6.5.6,0,0,7.1-4.4,7.2-4.5C43.61,21.41,44.11,21.51,43.81,21.91Z"/><text class="cls-2" transform="translate(80.81 47.36)">T<tspan class="cls-3" x="7.37" y="0">ang</tspan><tspan class="cls-4" x="31.37" y="0">i</tspan><tspan class="cls-5" x="34.99" y="0">er - 2019</tspan></text><text class="cls-6" transform="translate(80.81 61.58)">13<tspan class="cls-7" x="11.7" y="0">-</tspan><tspan class="cls-8" x="17.69" y="0">16 N</tspan><tspan class="cls-9" x="41.78" y="0">ov</tspan><tspan class="cls-8" x="55.15" y="0">ember</tspan></text></svg>