<svg xmlns="http://www.w3.org/2000/svg" width="260" height="74" viewBox="0 0 260 74">
    <g fill="#FFF" fill-rule="nonzero">
        <path d="M60.288 8.935a2.426 2.426 0 0 0-3.467.56 3.083 3.083 0 0 0-.685 2.127A25.264 25.264 0 0 0 40.16 7.245 24.653 24.653 0 0 0 24.08 14.1c-.329.333.087.876.546.57a28.228 28.228 0 0 1 6.545-2.977c.72-.227 1.092.061 1.092.499s.347 16.526.347 16.526l-.382-.245v.228h1.092s2.376-9.095 2.445-9.27a.545.545 0 0 1 1.023-.07c.052.175 2.67 8.858 2.73 9.086.13.464.685.394.685-.123 0-.516.693-16.981.693-17.62 0-.639.243-.875 1.093-.928 6.839-.394 12.603 1.856 15.429 3.94.866.656 2.383-.132 3.068-1.078a2.76 2.76 0 0 0-.2-3.702z"/>
        <path d="M73.088 34.34a2.486 2.486 0 0 0-.981-1.664 2.451 2.451 0 0 0-1.869-.45 3.052 3.052 0 0 0-1.984 1.022 25.905 25.905 0 0 0-8.277-14.586 24.903 24.903 0 0 0-16.317-6.68c-.472 0-.55.677 0 .8a28.09 28.09 0 0 1 6.765 2.58c.673.352.935.625.629.933-.306.308-11.231 11.812-11.231 11.812l-.114.115-.113.114c-.201.247.174.625.49.493l8.223-4.718a.539.539 0 0 1 .623.104.549.549 0 0 1 .103.627c-.079.158-4.37 8.23-4.484 8.44-.236.423.201.784.568.423.367-.36 12.481-11.618 12.927-12.041.446-.423.795-.449 1.433.123 5.148 4.639 7.674 10.37 8.216 13.881.175 1.11 1.748 1.629 2.945 1.435a2.74 2.74 0 0 0 2.448-2.764z"/>
        <path d="M64.143 60.269a2.406 2.406 0 0 0-.552-3.465 3.088 3.088 0 0 0-2.128-.685 25.23 25.23 0 0 0 4.38-15.967 24.626 24.626 0 0 0-6.86-16.07c-.332-.33-.875.086-.568.545a28.197 28.197 0 0 1 2.978 6.541c.227.72 0 1.092-.43 1.092-.429 0-16.466.346-16.466.346s.096-.251.087-.251h-.087v.936l9.205 2.477a.538.538 0 0 1 .376.512c0 .233-.151.44-.376.51l-9.056 2.721c-.465.13-.403.685.114.685.516 0 17.01.675 17.631.693.622.017.876.242.876 1.091.394 6.836-1.857 12.597-3.942 15.421-.656.867.132 2.383 1.078 3.067a2.754 2.754 0 0 0 3.74-.199z"/>
        <path d="M38.784 73.087a2.485 2.485 0 0 0 1.64-.992c.39-.536.548-1.205.437-1.857a3.052 3.052 0 0 0-1.021-1.984 25.887 25.887 0 0 0 14.612-8.277 24.91 24.91 0 0 0 6.654-16.317c0-.472-.678-.55-.801 0a28.089 28.089 0 0 1-2.58 6.764c-.351.673-.624.936-.932.63-.308-.306-11.777-11.231-11.777-11.231l-.115-.114-.106-.113c-.246-.201-.624.174-.492.49l4.718 8.223a.539.539 0 0 1-.104.623.549.549 0 0 1-.627.103c-.158-.079-8.23-4.37-8.441-4.484-.423-.236-.793.201-.423.568.37.367 11.61 12.48 11.998 12.926.387.446.448.796-.124 1.434-4.638 5.148-10.369 7.673-13.88 8.215-1.11.175-1.63 1.748-1.436 2.946a2.74 2.74 0 0 0 2.8 2.447z"/>
        <path d="M12.837 65.337a2.4 2.4 0 0 0 3.464-.553 3.1 3.1 0 0 0 .684-2.133 25.156 25.156 0 0 0 15.95 4.39 24.588 24.588 0 0 0 16.071-6.874c.33-.334-.086-.878-.545-.571a28.145 28.145 0 0 1-6.538 2.985c-.718.228-1.09.079-1.09-.351s-.347-16.434-.347-16.434l.39.052v-.052H39.81s-2.441 8.998-2.441 9.2a.546.546 0 0 1-.511.359.546.546 0 0 1-.511-.36c-.052-.175-2.667-8.918-2.728-9.147-.13-.465-.693-.412-.693.106s-.7 17.013-.753 17.628c-.052.614-.242.877-1.09.877-6.833.396-12.591-1.852-15.414-3.941-.866-.667-2.381.123-3.065 1.07a2.766 2.766 0 0 0 .233 3.75z"/>
        <path d="M.001 38.784c.098.666.46 1.263 1.003 1.655a2.446 2.446 0 0 0 1.878.422 3.047 3.047 0 0 0 1.982-1.021 25.893 25.893 0 0 0 8.277 14.585 24.872 24.872 0 0 0 16.291 6.681c.472 0 .55-.678 0-.801a28.04 28.04 0 0 1-6.731-2.553c-.672-.352-.934-.625-.629-.933.306-.308 11.193-11.803 11.193-11.803l.113-.115.114-.106c.2-.246-.175-.624-.489-.492l-8.216 4.718a.538.538 0 0 1-.621-.104.55.55 0 0 1-.103-.627 4993.2 4993.2 0 0 1 4.479-8.441c.235-.423-.201-.793-.568-.423-.367.37-12.467 11.61-12.913 11.998-.445.387-.794.448-1.431-.124-5.143-4.638-7.666-10.369-8.207-13.88-.175-1.11-1.746-1.63-2.943-1.436a2.73 2.73 0 0 0-2.479 2.8z"/>
        <path d="M8.933 12.838a2.423 2.423 0 0 0 .56 3.464c.597.485 1.356.73 2.126.684a25.22 25.22 0 0 0-4.374 15.95 24.63 24.63 0 0 0 6.85 16.07c.332.33.875-.086.569-.545a28.191 28.191 0 0 1-2.975-6.538c-.227-.718 0-1.09.42-1.09s16.447-.347 16.447-.347-.201.546-.192.546h.192V39.81l-9.212-2.442a.546.546 0 0 1-.358-.511c0-.228.143-.431.358-.51l9.098-2.728c.464-.13.403-.693-.113-.693-.517 0-16.99-.702-17.637-.753-.647-.052-.875-.243-.875-1.092-.394-6.831 1.846-12.59 3.937-15.412.656-.866-.131-2.381-1.076-3.066a2.759 2.759 0 0 0-3.745.234z"/>
        <path d="M34.34 0a2.487 2.487 0 0 0-1.679.992 2.447 2.447 0 0 0-.434 1.89 3.047 3.047 0 0 0 1.02 1.981 25.911 25.911 0 0 0-14.593 8.277 24.864 24.864 0 0 0-6.672 16.292c0 .472.677.55.8 0a28.044 28.044 0 0 1 2.588-6.731c.353-.673.625-.935.933-.63.309.307 11.804 11.194 11.804 11.194l.115.113.114.114c.247.2.625-.175.493-.489l-4.718-8.216a.538.538 0 0 1 .104-.621.55.55 0 0 1 .627-.103c.158.078 8.23 4.365 8.44 4.479.423.235.784-.201.423-.568-.36-.367-11.618-12.468-12.041-12.913-.423-.445-.449-.794.123-1.432 4.639-5.142 10.37-7.666 13.881-8.207 1.11-.174 1.629-1.746 1.435-2.942A2.73 2.73 0 0 0 34.34 0zM97.65 69.493c-.331 0-.6-.194-.6-.433V5.226c0-.24.269-.433.6-.433.33 0 .599.194.599.433V69.06c0 .24-.268.433-.6.433zM235.892 8.433c-6.817-.546-7.306 3.94-7.306 6.102 0 2.163 2.912 4.494 2.912 6.718 0 3.377-3.688 3.597-4.158 3.597-2.226.045-4.127-1.608-4.412-3.834-1.064 0-2.467 1.275-2.467 1.759 0 1.398 2.11 3.183 5.179 3.517 3.905.44 8.221-1.222 8.221-6.314 0-2.031-2.72-4.986-3.313-6.04a2.655 2.655 0 0 1-.349-1.293c0-.827.785-2.471 3.2-2.471.79-.081 1.546.34 1.9 1.055.123.114.236.114.358-.114.122-.229 1.421-1.6 1.578-1.856 0-.624-.514-.756-1.343-.826zM225.253 10.891a3.675 3.675 0 0 0-1.27-2.32c-.483-.28-2.192 3.03-2.788 4.202a927.722 927.722 0 0 1-3.226 5.97 10.428 10.428 0 0 1-1.07 2.083c-.42.612-4.233 3.396-5.451 3.396a.763.763 0 0 1-.877-.937c.105-1.234.49-2.328 1.753-4.56 1.192-2.057 2.744-4.56 4.655-7.877.692-1.024-1.894-.648-2.63.288-.105.132-3.795 5.917-5.11 7.878-.307.464-.561.875-.79 1.304-1.095 1.06-2.077 1.996-3.129 2.836a16.41 16.41 0 0 1-3.585 2.46c-.865.538-1.849.86-2.866.936-.719 0-.99.079-1.227-.271a2.002 2.002 0 0 1-.36-1.173c0-1.173.596-2.932 1.675-5.383 1.078-2.45 6.802-12.175 7.012-12.412l-.123-.122a5.343 5.343 0 0 0-2.743 1.059c-.297.308-.54.663-.719 1.05a9.776 9.776 0 0 0-6.136 1.593 25.48 25.48 0 0 0-5.39 4.683 35.01 35.01 0 0 0-3.7 5.252 9.942 9.942 0 0 0-1.437 4.446 1.968 1.968 0 0 0 2.147 2.118c4.383 0 8.6-7.124 9.31-7.947a11.862 11.862 0 0 0-1.544 3.02 8.996 8.996 0 0 0-.718 2.932 2.466 2.466 0 0 0 .73 1.997 2.474 2.474 0 0 0 2.013.69 8.617 8.617 0 0 0 3.822-1.05 22.242 22.242 0 0 0 4.295-2.81c.588-.447 1.131-.875 1.675-1.392a3.444 3.444 0 0 0-.106.805 1.557 1.557 0 0 0 .596 1.4c.531.351 1.163.518 1.797.473a7.346 7.346 0 0 0 2.858-.7c.839-.44 1.64-.95 2.393-1.523a.395.395 0 0 1 .237-.122c.122 0 .122 0 0 .236-1.315 2.223-9.59 13.847-16.217 13.847-6.18 0-7.38-4.306-7.503-3.834-.123.473-.877 6.127 5.619 6.127 15.392 0 26.936-26.512 27.41-27.212.345-.418.59-.909.718-1.436zm-36.07 14.635c-.657 0-.877-.254-.877-.726 0-2.898 7.1-13.777 13.587-14.591a18.805 18.805 0 0 1-1.648 3.615c-2.226 3.15-9.072 11.702-11.062 11.702zM122.874 26.352a.572.572 0 0 1-.658-.632V7.83c0-.418.222-.632.658-.64h2.784c.309-.011.6.145.76.41l6.543 9.303 6.542-9.295a.99.99 0 0 1 .786-.41h2.844a.572.572 0 0 1 .64.641v17.88a.565.565 0 0 1-.64.633h-3.869a.58.58 0 0 1-.666-.632v-9.218l-4.074 5.985a.854.854 0 0 1-.76.41h-1.52a.854.854 0 0 1-.795-.41l-4.066-5.985v9.218a.573.573 0 0 1-.657.632h-3.852zM162.943 10.733c0 .402-.221.599-.654.599h-9.56v3.48h8.03c.45 0 .68.196.69.598v2.846c0 .402-.23.599-.69.599h-8.03v3.368h9.56c.433 0 .654.197.654.599v2.898a.553.553 0 0 1-.166.472.596.596 0 0 1-.488.16h-14.23a.606.606 0 0 1-.504-.152.562.562 0 0 1-.178-.48V7.835c0-.419.23-.633.681-.641h14.23a.596.596 0 0 1 .493.163.553.553 0 0 1 .162.478v2.898zM173.49 7.189c3.382 0 6.063.856 8.044 2.569a8.832 8.832 0 0 1 2.97 7.004 8.805 8.805 0 0 1-2.944 7.022c-1.992 1.712-4.673 2.568-8.044 2.568h-7.492a.596.596 0 0 1-.498-.153.566.566 0 0 1-.176-.48V7.83c0-.42.227-.633.674-.642h7.466zm-.237 14.822a6.107 6.107 0 0 0 4.241-1.438 4.868 4.868 0 0 0 1.595-3.794 4.876 4.876 0 0 0-1.595-3.793 6.107 6.107 0 0 0-4.24-1.439h-2.63v10.464h2.63zM125.63 57.512c.118 0 .176.06.176.188v8.01c0 .129-.058.189-.176.189h-1.137c-.118 0-.177-.06-.177-.188v-6.908h-1.902c-.135 0-.202-.052-.202-.163v-.966c0-.103.05-.162.143-.162h3.275zM131.251 65.893a3.467 3.467 0 0 1-2.043-.576 2.313 2.313 0 0 1-1.005-1.516c0-.124 0-.181.167-.181h1.114a.184.184 0 0 1 .193.148c.104.293.312.538.586.692.298.177.64.265.988.255.4.02.796-.093 1.123-.321.27-.19.433-.497.435-.824a1.121 1.121 0 0 0-.444-.947 1.933 1.933 0 0 0-1.222-.338h-.72c-.118 0-.177-.058-.177-.181v-.767a.155.155 0 0 1 .046-.128.16.16 0 0 1 .13-.045h.72c.37.02.732-.108 1.006-.354.254-.253.388-.6.368-.956a1.08 1.08 0 0 0-.368-.823c-.264-.221-.6-.338-.947-.33-.312-.01-.62.076-.88.247a1.12 1.12 0 0 0-.46.66c0 .106-.084.164-.184.164h-1.106c-.134 0-.192-.066-.167-.19.086-.6.411-1.143.904-1.507a3.102 3.102 0 0 1 1.893-.56 2.921 2.921 0 0 1 1.96.634c.496.43.77 1.056.745 1.705a1.992 1.992 0 0 1-.93 1.813 1.975 1.975 0 0 1 1.215 1.911 2.08 2.08 0 0 1-.837 1.706 3.288 3.288 0 0 1-2.103.61zM139.183 63.502c-.131 0-.197-.052-.197-.163v-.884c0-.104.066-.156.197-.149h4.398a.2.2 0 0 1 .145.035c.04.03.058.072.051.114v.884c0 .111-.065.163-.196.163h-4.398zM150.792 57.512c.117 0 .176.06.176.188v8.01c0 .129-.059.189-.176.189h-1.137c-.117 0-.175-.06-.175-.188v-6.908h-1.906c-.134 0-.2-.052-.2-.163v-.966c0-.103 0-.162.141-.162h3.277zM159.544 65.244a4.666 4.666 0 0 1-2.595.65 4.726 4.726 0 0 1-2.604-.65c-.628-.388-.997-1.038-.98-1.727a1.97 1.97 0 0 1 .408-1.218 2.788 2.788 0 0 1 1.152-.822c-.668-.317-1.11-.922-1.17-1.604-.061-.68.268-1.343.87-1.753a4.719 4.719 0 0 1 4.638 0c.592.373.934.993.907 1.646.021.743-.44 1.429-1.18 1.752.457.175.853.46 1.144.823.734.957.479 2.272-.572 2.945l-.018-.042zm-3.91-.822a2.573 2.573 0 0 0 2.63 0 1.13 1.13 0 0 0 .5-.963 1.189 1.189 0 0 0-.5-1.003 2.109 2.109 0 0 0-1.315-.379 2.168 2.168 0 0 0-1.316.379c-.332.245-.52.615-.508 1.003.003.365.19.707.508.93v.033zm.135-3.653a2.103 2.103 0 0 0 2.36 0c.3-.244.463-.597.444-.962a1.032 1.032 0 0 0-.444-.872 2.236 2.236 0 0 0-2.36 0c-.292.21-.457.534-.444.872-.006.353.156.692.444.93v.032zM171.093 57.702c0-.128.057-.188.17-.188h1.091c.05-.01.1.008.136.045.035.037.05.09.042.143v8.006a.168.168 0 0 1-.042.143.148.148 0 0 1-.136.045h-.808a.26.26 0 0 1-.202-.094l-4.567-5.588v5.494c0 .128-.056.188-.17.188h-1.099c-.113 0-.17-.06-.162-.188v-8.006c0-.128.049-.188.162-.188h.808a.238.238 0 0 1 .202.103l4.608 5.716-.033-5.631zM178.9 65.077a3.28 3.28 0 0 1-4.343 0c-1.099-1.218-1.099-3.122 0-4.34a3.258 3.258 0 0 1 4.342 0c1.1 1.218 1.1 3.122 0 4.34zm-3.351-.896a1.678 1.678 0 0 0 2.359 0 2.05 2.05 0 0 0 0-2.556 1.678 1.678 0 0 0-2.36 0 2.05 2.05 0 0 0 0 2.556zM183.945 65.854a.222.222 0 0 1-.222-.142l-2.776-5.583c-.065-.15 0-.221.148-.221h1.277a.232.232 0 0 1 .222.133l1.925 3.99 1.944-3.946a.195.195 0 0 1 .213-.133h1.258c.167 0 .213.071.148.221l-2.822 5.584a.222.222 0 0 1-.222.141l-1.093-.044zM191.199 65.896a3.12 3.12 0 0 1-2.244-.833 3.184 3.184 0 0 1 0-4.32 2.979 2.979 0 0 1 2.186-.833 2.896 2.896 0 0 1 2.128.834c.557.563.858 1.333.83 2.126v.467a.175.175 0 0 1-.199.15h-4.297c.067.376.26.717.549.967.313.228.693.346 1.08.333a1.36 1.36 0 0 0 1.106-.408.307.307 0 0 1 .224-.1h1.147a.174.174 0 0 1 .141.058v.142c-.225.444-.59.802-1.039 1.017a3.316 3.316 0 0 1-1.612.4zm-1.712-3.41h3.108a1.386 1.386 0 0 0-.415-1.008 1.41 1.41 0 0 0-1.03-.359 1.66 1.66 0 0 0-1.115.384c-.3.246-.496.597-.548.983zM203.505 59.912a2.492 2.492 0 0 1 1.868.759c.485.538.74 1.252.707 1.984v3.054c0 .13-.059.19-.168.19h-1.094c-.118 0-.177-.06-.168-.19V62.74a1.585 1.585 0 0 0-.404-1.13 1.387 1.387 0 0 0-1.052-.431c-.347-.011-.68.138-.909.405a1.57 1.57 0 0 0-.353 1.07v3.054c0 .13-.06.19-.177.19h-1.077c-.118 0-.177-.06-.168-.19V62.74a1.754 1.754 0 0 0-.362-1.13 1.215 1.215 0 0 0-.968-.431 1.329 1.329 0 0 0-1.01.405 1.47 1.47 0 0 0-.387 1.07v3.054c0 .13-.059.19-.176.19h-1.086c-.126 0-.185-.06-.177-.19v-4.055c0-.302-.168-.448-.496-.448h-.337c-.134 0-.21 0-.21-.147v-.785a.198.198 0 0 1 .143-.216c.233-.081.477-.125.724-.129a1.34 1.34 0 0 1 1.33.742 2.687 2.687 0 0 1 1.985-.742 2.29 2.29 0 0 1 1.893.863 2.684 2.684 0 0 1 2.13-.88zM211.48 60.621c.796-.032 1.571.294 2.153.907 1.116 1.3 1.116 3.36 0 4.66-.583.61-1.357.936-2.154.907a2.532 2.532 0 0 1-1.613-.544v.154c0 .136-.048.2-.16.2h-1.057c-.113 0-.17-.064-.17-.2v-8.994c0-.136.057-.2.17-.2h1.056c.113 0 .17.064.161.2v3.463a2.534 2.534 0 0 1 1.613-.553zm0 5.214c.442.014.868-.188 1.169-.553a2.416 2.416 0 0 0 0-2.838 1.444 1.444 0 0 0-1.17-.535 1.388 1.388 0 0 0-1.137.544 2.49 2.49 0 0 0 0 2.838c.29.36.706.56 1.137.544zM220.342 60.03a.158.158 0 0 1 .102.089c.02.045.022.098.006.144l-.132.865a.17.17 0 0 1-.063.127.133.133 0 0 1-.13.02 2.933 2.933 0 0 0-.616-.06 1.454 1.454 0 0 0-1.126.483 1.848 1.848 0 0 0-.44 1.262v2.748c0 .13-.053.19-.161.19h-.995c-.115 0-.162-.06-.162-.19v-4.062c0-.302-.154-.45-.454-.45h-.301c-.131 0-.2 0-.2-.146v-.787c-.011-.098.045-.19.13-.216.216-.074.439-.118.664-.13.549-.074 1.072.284 1.264.865.46-.564 1.115-.879 1.796-.864.276-.003.55.035.818.112zM224.772 65.896a3.155 3.155 0 0 1-2.26-.833 3.16 3.16 0 0 1 0-4.319 3.02 3.02 0 0 1 2.21-.834 2.825 2.825 0 0 1 2.123.836c.557.564.848 1.336.8 2.124v.467a.185.185 0 0 1-.202.15H223.1c.095.37.314.697.622.925a1.79 1.79 0 0 0 1.092.334c.418.038.83-.112 1.125-.409.059-.063.14-.1.227-.1h1.16a.152.152 0 0 1 .134.059c.03.042.03.099 0 .141a2.25 2.25 0 0 1-1.033 1.06 3.38 3.38 0 0 1-1.655.4zm-1.68-3.41h3.141a1.38 1.38 0 0 0-.452-1.008 1.4 1.4 0 0 0-1.051-.359c-.41-.013-.81.124-1.126.384-.303.245-.499.598-.546.983h.034zM232.833 65.874c-.118 0-.178-.059-.17-.185v-.41a.307.307 0 0 1 .077-.225l3.444-3.865c.37-.364.587-.85.611-1.364a1.014 1.014 0 0 0-.373-.837 1.516 1.516 0 0 0-1.001-.31 1.55 1.55 0 0 0-.993.319 1.234 1.234 0 0 0-.483.836.186.186 0 0 1-.195.168h-1.137c-.119 0-.178-.059-.17-.176a2.256 2.256 0 0 1 .848-1.673 3.212 3.212 0 0 1 2.07-.636 3.272 3.272 0 0 1 2.13.644c.52.401.82 1.021.805 1.673a3 3 0 0 1-.848 1.958l-2.587 2.911h3.393a.163.163 0 0 1 .132.046.158.158 0 0 1 .046.13v.837c0 .125-.06.184-.178.184l-5.42-.025zM240.625 58.372c1.516-1.147 3.694-1.147 5.21 0 .664.593 1.021 1.42.982 2.274v2.118c.04.854-.318 1.682-.982 2.274-1.516 1.148-3.694 1.148-5.21 0-.666-.592-1.027-1.42-.991-2.274v-2.118c-.036-.854.325-1.682.99-2.274zm4.626 4.392v-2.118a1.782 1.782 0 0 0-.557-1.37c-.83-.701-2.098-.701-2.928 0-.38.366-.582.862-.558 1.37v2.118a1.782 1.782 0 0 0 .558 1.37c.83.701 2.098.701 2.928 0 .38-.366.582-.861.557-1.37zM251.437 57.512c.117 0 .176.06.176.188v8.01c0 .129-.059.189-.176.189h-1.136c-.118 0-.176-.06-.176-.188v-6.908h-1.906c-.134 0-.2-.052-.2-.163v-.966c0-.103 0-.162.142-.162h3.276zM253.798 58.294a4.058 4.058 0 0 1 2.593-.779 4.163 4.163 0 0 1 2.612.77c.662.501 1.03 1.25.995 2.028a3.38 3.38 0 0 1-.846 1.968l-2.677 3.5a.318.318 0 0 1-.25.118h-1.47c-.185 0-.232-.076-.13-.218l1.934-2.563h-.168a4.103 4.103 0 0 1-2.593-.762c-.653-.498-1.016-1.24-.985-2.01-.032-.783.33-1.537.985-2.052zm2.593 3.593a2.25 2.25 0 0 0 1.469-.452c.365-.303.565-.734.548-1.181a1.448 1.448 0 0 0-.548-1.172 2.293 2.293 0 0 0-1.469-.444 2.197 2.197 0 0 0-1.43.452 1.463 1.463 0 0 0-.55 1.18c-.016.445.184.874.55 1.173.398.304.909.462 1.43.444zM131.51 39.542a.248.248 0 0 1 .214.072.26.26 0 0 1 .07.219v1.462a.269.269 0 0 1-.07.22.256.256 0 0 1-.214.08h-3.308v8.434a.26.26 0 0 1-.07.218.248.248 0 0 1-.215.073h-1.783a.256.256 0 0 1-.216-.073.268.268 0 0 1-.077-.218v-8.434h-3.333a.256.256 0 0 1-.22-.075.269.269 0 0 1-.074-.225v-1.462a.268.268 0 0 1 .078-.219.256.256 0 0 1 .216-.072h9.002zM142.576 49.77a.308.308 0 0 1-.05.23.259.259 0 0 1-.19.112 3.52 3.52 0 0 1-1.112.198c-.743.088-1.468-.296-1.863-.99a3.507 3.507 0 0 1-2.472.99c-1.044.044-2.059-.378-2.81-1.169-.731-.795-1.123-1.888-1.08-3.012-.04-1.131.355-2.23 1.087-3.03.753-.784 1.763-1.203 2.803-1.16.76-.021 1.505.242 2.11.746v-.171a.295.295 0 0 1 .07-.232.244.244 0 0 1 .21-.083h1.648a.227.227 0 0 1 .213.079.277.277 0 0 1 .06.236v5.08c0 .423.164.63.494.63.155.003.31-.015.461-.054.198 0 .297.063.305.26l.116 1.34zm-5.522-1.357a1.66 1.66 0 0 0 1.351-.639 2.894 2.894 0 0 0 0-3.3 1.66 1.66 0 0 0-1.351-.638 1.72 1.72 0 0 0-1.377.638 2.814 2.814 0 0 0 0 3.3 1.72 1.72 0 0 0 1.377.639zM149.88 41.944a3.337 3.337 0 0 1 2.521 1.012c.657.72 1.003 1.69.96 2.684v4.364a.296.296 0 0 1-.083.237.268.268 0 0 1-.228.079h-1.776c-.213 0-.32-.102-.32-.316v-4.03a2.006 2.006 0 0 0-.453-1.365 1.537 1.537 0 0 0-1.225-.52 1.73 1.73 0 0 0-1.287.492c-.334.344-.512.82-.489 1.31v4.113a.296.296 0 0 1-.082.237.268.268 0 0 1-.228.079h-1.776a.26.26 0 0 1-.227-.079.287.287 0 0 1-.075-.237v-5.246a.602.602 0 0 0-.156-.49.545.545 0 0 0-.466-.17l-.355.056c-.23 0-.355-.093-.355-.27V42.52a.352.352 0 0 1 .249-.372c.367-.14.755-.209 1.145-.204.783-.075 1.535.34 1.918 1.059a3.695 3.695 0 0 1 2.788-1.059zM162.66 42.195a.254.254 0 0 1 .216.082c.055.06.082.145.07.228v7.628a3.575 3.575 0 0 1-1.119 2.741 4.14 4.14 0 0 1-2.938 1.038 4.522 4.522 0 0 1-2.737-.798 3.243 3.243 0 0 1-1.33-2.12c0-.204.042-.31.278-.31h1.684a.389.389 0 0 1 .337.248c.108.326.33.596.623.754.343.195.73.293 1.12.284.48.025.95-.154 1.304-.497.328-.352.501-.83.48-1.322v-.674a3.252 3.252 0 0 1-2.105.692 3.816 3.816 0 0 1-2.862-1.162c-1.492-1.66-1.492-4.257 0-5.916a3.84 3.84 0 0 1 2.862-1.153c.778-.02 1.538.239 2.156.736v-.169a.284.284 0 0 1 .071-.228.254.254 0 0 1 .215-.082h1.676zm-3.914 6.085c.524.017 1.03-.21 1.38-.621a2.412 2.412 0 0 0 .53-1.614 2.365 2.365 0 0 0-.538-1.615 1.744 1.744 0 0 0-1.372-.62 1.776 1.776 0 0 0-1.398.63 2.325 2.325 0 0 0-.556 1.605c-.021.592.175 1.17.547 1.614.363.41.875.636 1.407.62zM168.513 50.318a4.351 4.351 0 0 1-3.154-1.152 3.992 3.992 0 0 1-1.207-3.032 4.04 4.04 0 0 1 1.172-3.04 4.153 4.153 0 0 1 3.048-1.152 4.048 4.048 0 0 1 3.04 1.134c.76.799 1.165 1.882 1.12 2.995v.558a.308.308 0 0 1-.113.207.295.295 0 0 1-.223.063h-5.692c.113.463.381.87.758 1.152.388.282.855.427 1.33.413.483.045.96-.13 1.305-.476a.733.733 0 0 1 .378-.171h1.763a.305.305 0 0 1 .246.09.192.192 0 0 1 0 .234 3.18 3.18 0 0 1-1.41 1.592 4.567 4.567 0 0 1-2.36.585zm-2.062-4.867h3.79c0-.47-.189-.918-.52-1.242a1.74 1.74 0 0 0-1.287-.477 1.955 1.955 0 0 0-1.983 1.718zM180.67 42.095c.08.01.153.057.2.128.046.07.063.159.045.243l-.21 1.606a.291.291 0 0 1-.12.214.26.26 0 0 1-.232.037 4.048 4.048 0 0 0-.876-.084 2.012 2.012 0 0 0-1.5.585 2.127 2.127 0 0 0-.587 1.587v3.593a.289.289 0 0 1-.074.237.254.254 0 0 1-.224.079h-1.753a.254.254 0 0 1-.224-.079.289.289 0 0 1-.074-.237V44.76a.597.597 0 0 0-.15-.493.526.526 0 0 0-.464-.166l-.35.056c-.229 0-.343-.093-.343-.27v-1.364a.353.353 0 0 1 .237-.372 3.381 3.381 0 0 1 1.13-.204c.8-.087 1.565.366 1.912 1.133a3.234 3.234 0 0 1 2.578-1.133c.364-.007.728.043 1.078.149z"/>
    </g>
</svg>
