<?xml version="1.0" encoding="utf-8"?>
<!-- Generator: Adobe Illustrator 23.0.6, SVG Export Plug-In . SVG Version: 6.00 Build 0)  -->
<svg version="1.1" id="Calque_1" xmlns="http://www.w3.org/2000/svg" xmlns:xlink="http://www.w3.org/1999/xlink" x="0px" y="0px"
	 viewBox="0 0 172.8 64.9" style="enable-background:new 0 0 172.8 64.9;" xml:space="preserve">
<style type="text/css">
	.st0{fill:#FFFFFF;}
	.st1{font-family:'Nutmeg-ExtraBold';}
	.st2{font-size:10.71px;}
	.st3{enable-background:new    ;}
	.st4{font-size:8.28px;}
</style>
<title>logo-medays-fr</title>
<path class="st0" d="M71.3,9.9c-0.3,0-0.5,0.2-0.5,0.5v51.5c0,0.3,0.2,0.5,0.5,0.5c0.3,0,0.5-0.2,0.5-0.5V10.4
	C71.8,10.1,71.6,9.9,71.3,9.9z"/>
<path class="st0" d="M98.8,10.7h-2.3c-0.2,0-0.5,0.1-0.6,0.3l-5.4,7.8L84.9,11c-0.2-0.2-0.4-0.3-0.6-0.3H82c-0.3,0-0.5,0.2-0.5,0.5
	c0,0,0,0,0,0.1v14.9c0,0.3,0.2,0.5,0.5,0.5c0,0,0,0,0.1,0v0.1h3.3c0.3,0,0.5-0.2,0.5-0.5c0,0,0,0,0-0.1v-7.8l3.4,5
	c0.1,0.2,0.4,0.3,0.6,0.3H91c0.3,0,0.5-0.1,0.6-0.3l3.4-5v7.7c0,0.3,0.2,0.5,0.5,0.5c0,0,0,0,0.1,0h3.2c0.3,0,0.5-0.2,0.5-0.5
	c0,0,0,0,0-0.1V11.3C99.3,11,99.1,10.7,98.8,10.7C98.8,10.7,98.8,10.7,98.8,10.7z"/>
<path class="st0" d="M114.4,10.7h-11.5c-0.3,0-0.5,0.2-0.5,0.5c0,0,0,0,0,0.1v14.9c0,0.3,0.2,0.5,0.5,0.5c0,0,0,0,0,0h11.5
	c0.3,0,0.5-0.2,0.5-0.5c0,0,0,0,0-0.1v-2.4c0-0.3-0.2-0.5-0.5-0.5c0,0,0,0-0.1,0h-7.8v-2.8h6.5c0.3,0,0.5-0.2,0.5-0.5c0,0,0,0,0-0.1
	v-2.3c0-0.3-0.2-0.5-0.5-0.5c0,0,0,0-0.1,0h-6.5v-2.9h7.8c0.3,0,0.5-0.2,0.5-0.5c0,0,0,0,0-0.1v-2.3C114.9,11,114.7,10.7,114.4,10.7
	C114.4,10.7,114.4,10.7,114.4,10.7z"/>
<path class="st0" d="M131.2,12.7c-1.9-1.5-4.2-2.2-6.6-2.1h-6.1c-0.3,0-0.5,0.2-0.5,0.5c0,0,0,0,0,0.1V26c0,0.3,0.2,0.5,0.5,0.5
	c0,0,0,0,0.1,0h6.1c2.8,0,5-0.6,6.6-2.1c1.6-1.5,2.5-3.6,2.4-5.9C133.7,16.3,132.8,14.2,131.2,12.7z M127.8,21.7
	c-0.9,0.8-2.2,1.2-3.4,1.2h-2.1v-8.7h2.1c1.2-0.1,2.5,0.3,3.4,1.2c0.8,0.8,1.3,2,1.2,3.2C129.1,19.8,128.6,20.9,127.8,21.7
	L127.8,21.7z"/>
<path class="st0" d="M161.9,14.2c-0.3,0.9-0.7,1.8-1.1,2.8c-0.8,1.6-4.6,9-7.7,9c-3.3,0,3.3-9.7,3.6-10.2c0.5-1.1-1.8-0.9-2.2,0.1
	c-0.4,0.7-1.8,2.8-3,5c-1.9,2.3-4.8,5.1-7,5.1c-2.8,0,4.1-11.1,4.5-11.6c0.5-1.1-1.8-0.9-2.2,0.1c-0.1,0.2-0.3,0.5-0.5,0.8
	c-0.1-0.5-0.5-0.8-1-0.8c-7.1-0.6-15.1,12.6-9.3,12.6c1.8,0,4-1.6,5.9-3.6c-0.7,2.1-0.5,3.6,1.7,3.6c2.6-0.2,5-1.3,6.8-3.3
	c-0.6,2-0.4,3.6,1.9,3.6c1.9-0.1,3.8-1,5-2.5c-2.5,4.1-6,7.4-10.6,7.4c-3.7,0-5-2.2-5-1.4c0,0.1,0.6,3.5,5.2,3.5
	c10.1,0,16.1-17.1,16.8-18.8C163.8,14.8,162.2,13.3,161.9,14.2z M137,25.4c-3.2,0,4-10.2,7.6-9.9C146.6,15.6,139.9,25.4,137,25.4z"
	/>
<path class="st0" d="M172.6,15.1c-4.2-2.9-9.2,1.9-5.1,6.3c3.9,4.1-0.2,8.2-5,1.8c-0.4-0.5-2.4,1.1-1.5,2c6,5.9,13.3,0.2,8.2-4.9
	c-3.8-3.7-0.4-6.3,2.4-3.4C172.1,17.3,173.3,15.5,172.6,15.1z"/>
<path class="st0" d="M62.4,28.3c-0.7,0.1-1.3,0.4-1.7,0.9c-1-4.9-3.5-9.4-7.2-12.7c-3.9-3.6-9-5.7-14.3-5.8c-0.2,0-0.3,0.2-0.3,0.4
	c0,0.2,0.2,0.3,0.3,0.3c2.1,0.5,4,1.2,5.9,2.2c0.6,0.3,0.8,0.5,0.5,0.8s-8.2,8.6-9.6,10c0.1-2.1,0.6-14.6,0.6-15.1s0.2-0.8,1-0.8
	c6-0.3,11.1,1.6,13.6,3.4c0.8,0.6,2.1-0.1,2.7-0.9c0.8-0.9,0.7-2.4-0.2-3.2c-1-0.7-2.3-0.5-3.1,0.4c0,0,0,0,0,0.1
	C50.2,8.9,50,9.5,50,10.2c-4.1-2.8-9.1-4.1-14.1-3.8c-5.3,0.2-10.4,2.3-14.2,6c-0.1,0.1-0.1,0.4,0,0.5s0.4,0.1,0.5,0
	c1.8-1.1,3.8-2,5.8-2.6c0.6-0.2,1,0,1,0.3s0.2,11,0.3,13.7c-1.4-1.5-9.9-10.7-10.3-11.1s-0.4-0.7,0.1-1.2c3.1-3.6,7.4-6.2,12.1-7.2
	c1-0.2,1.4-1.6,1.2-2.6C32.3,1,31.2,0,30,0c-1.2,0.2-2,1.2-1.8,2.4c0,0,0,0.1,0,0.1c0.1,0.7,0.4,1.3,0.9,1.7
	c-4.9,1-9.4,3.5-12.7,7.2c-3.6,3.9-5.7,9-5.8,14.3c0,0.2,0.2,0.3,0.4,0.3c0.2,0,0.3-0.2,0.3-0.3c0.5-2.1,1.2-4,2.2-5.9
	c0.3-0.6,0.5-0.8,0.8-0.5s8.6,8.2,10,9.6c-2-0.1-14.6-0.6-15.1-0.6s-0.8-0.2-0.8-1c-0.3-6,1.6-11.1,3.4-13.6
	c0.6-0.8-0.1-2.1-0.9-2.7c-0.9-0.8-2.4-0.7-3.2,0.2c-0.7,1-0.5,2.3,0.4,3.1c0,0,0,0,0.1,0c0.6,0.4,1.2,0.6,1.9,0.6
	C7.3,19,6,24,6.3,29c0.2,5.3,2.3,10.4,6,14.2c0.1,0.1,0.4,0.1,0.5,0s0.1-0.4,0-0.5c-1.1-1.8-2-3.8-2.6-5.8c-0.2-0.6-0.1-1,0.3-1
	s11.4-0.2,13.8-0.3c-1.5,1.4-10.7,9.9-11.1,10.3s-0.7,0.4-1.2-0.1c-3.6-3.1-6.2-7.4-7.2-12.1c-0.2-1-1.6-1.4-2.6-1.2
	C1,32.6,0,33.7,0,34.9c0.2,1.2,1.2,2,2.4,1.8c0,0,0.1,0,0.1,0c0.7-0.1,1.3-0.4,1.7-0.9c1,4.9,3.5,9.4,7.2,12.7
	c3.9,3.6,9,5.7,14.3,5.8c0.2,0,0.4-0.2,0.4-0.3c0-0.2-0.2-0.4-0.4-0.4c-2.1-0.5-4-1.2-5.9-2.2c-0.6-0.3-0.8-0.5-0.5-0.8
	s8.2-8.6,9.6-10c-0.1,2.1-0.6,14.6-0.6,15.1s-0.2,0.8-1,0.8c-6,0.3-11.1-1.6-13.6-3.4c-0.8-0.6-2.1,0.1-2.7,0.9
	c-0.8,0.9-0.7,2.4,0.2,3.2c1,0.7,2.3,0.5,3.1-0.4c0,0,0,0,0-0.1c0.4-0.6,0.6-1.2,0.6-1.9C19,57.6,24,58.9,29,58.6
	c5.3-0.2,10.4-2.3,14.2-6c0.1-0.1,0.1-0.4,0-0.5s-0.4-0.1-0.5,0l0,0c-1.8,1.1-3.8,2-5.8,2.6c-0.6,0.2-1,0.2-1-0.2s-0.3-12-0.3-13.9
	c1.4,1.5,9.9,10.7,10.3,11.1s0.4,0.7-0.1,1.2c-3.1,3.6-7.4,6.2-12.1,7.2c-1,0.2-1.4,1.6-1.2,2.6c0.1,1.2,1.2,2.2,2.4,2.2
	c1.2-0.2,2-1.2,1.8-2.4c0,0,0-0.1,0-0.1c-0.1-0.7-0.4-1.3-0.9-1.7c4.9-1,9.4-3.5,12.7-7.2c3.6-3.9,5.7-9,5.8-14.3
	c0-0.2-0.2-0.4-0.3-0.4c-0.2,0-0.4,0.2-0.4,0.4c-0.5,2.1-1.2,4-2.2,5.9c-0.3,0.6-0.5,0.8-0.8,0.5s-8.6-8.2-10-9.6
	c2.1,0.1,14.6,0.6,15.1,0.6s0.8,0.2,0.8,1c0.3,6-1.6,11.1-3.4,13.6c-0.6,0.8,0.1,2.1,0.9,2.7c0.9,0.8,2.4,0.7,3.2-0.2
	c0.7-1,0.5-2.3-0.4-3.1c0,0,0,0-0.1,0c-0.6-0.4-1.2-0.6-1.9-0.6c2.8-4.1,4.1-9.1,3.8-14.1c-0.2-5.3-2.3-10.4-6-14.2
	c-0.1-0.1-0.4-0.1-0.5,0s-0.1,0.4,0,0.5l0,0c1.1,1.8,2,3.8,2.6,5.8c0.2,0.6,0.1,1-0.2,1S43,29.2,40.7,29.3
	c1.5-1.4,10.7-9.9,11.1-10.3s0.7-0.4,1.2,0.1c3.6,3.1,6.2,7.4,7.2,12.1c0.2,1,1.6,1.4,2.6,1.2C64,32.3,65,31.2,65,30
	C64.7,28.9,63.6,28.1,62.4,28.3z M43.8,21.9c-0.1,0.1-3.8,7.5-3.9,7.6V30c0,0,7.8,2.1,8,2.2c0.4,0.1,0.5,0.8,0.1,0.9
	c-0.2,0-7.7,2.4-7.9,2.4s-0.1,0.1-0.2,0.2s-0.2,0.3-0.2,0.5c0,0,4,7.1,4,7.2c0.2,0.4-0.3,0.8-0.7,0.6c-0.1-0.1-7.2-3.8-7.3-3.9h-0.2
	c-0.1-0.2-0.5,0.2-0.6,0.2s-2.1,7.8-2.2,7.9c-0.1,0.2-0.4,0.4-0.6,0.3c-0.1,0-0.2-0.1-0.3-0.3c0-0.2-2.4-7.8-2.4-8
	c0-0.1-0.1-0.2-0.2-0.2c0-0.2-0.3-0.3-0.5-0.2c0,0-7.1,4-7.2,4.1c-0.2,0.1-0.5,0-0.6-0.2c-0.1-0.1-0.1-0.3,0-0.4
	c0.1-0.1,3.8-7.2,3.9-7.3s-0.3-0.3-0.4-0.4s0.1-0.3-0.6-0.4c0,0-7.4-2.1-7.5-2.2c-0.4-0.1-0.2-0.8,0.2-0.9c0.2,0,7.9-2.4,8.1-2.4
	s0.2-0.1,0.3-0.2c0.2,0,0.3-0.2,0.3-0.4c0,0,0,0,0-0.1c0,0-4-7.1-4.1-7.2c-0.1-0.2,0-0.5,0.2-0.6c0.1-0.1,0.3-0.1,0.4,0
	c0.1,0.1,7.2,3.8,7.3,3.9s0.2,0.2,0.2,0.2c0.1,0.2,0.5,0.8,0.6,0c0,0,2.1-8,2.2-8.2c0.1-0.4,0.8-0.5,0.9-0.1c0,0.2,2.4,7.7,2.4,7.9
	c0,0.2,0.1,0.4,0.2,0.6c0,0.2,0.3,0.6,0.5,0.6c0,0,7.1-4.4,7.2-4.5C43.6,21.4,44.1,21.5,43.8,21.9z"/>
<text transform="matrix(1 0 0 1 80.81 47.36)" class="st0 st1 st2">T</text>
<g class="st3">
	<path class="st0" d="M96.1,47.1c0,0.2-0.1,0.2-0.2,0.3c-0.3,0.1-0.6,0.1-0.9,0.1c-0.7,0-1.2-0.2-1.5-0.6c-0.5,0.4-1.1,0.6-1.8,0.6
		c-0.8,0-1.5-0.3-2-0.8c-0.5-0.5-0.8-1.2-0.8-2c0-0.8,0.3-1.5,0.8-2c0.5-0.5,1.2-0.8,2-0.8c0.6,0,1.1,0.2,1.5,0.5v-0.1
		c0-0.2,0.1-0.2,0.3-0.2h1.4c0.2,0,0.2,0.1,0.2,0.2v3.1c0,0.3,0.1,0.5,0.3,0.5c0.1,0,0.2,0,0.3,0c0.2,0,0.3,0.1,0.3,0.2L96.1,47.1z
		 M91.1,45.7c0.2,0.2,0.5,0.4,0.9,0.4s0.6-0.1,0.9-0.4c0.2-0.2,0.3-0.6,0.3-1c0-0.4-0.1-0.7-0.3-1c-0.2-0.2-0.5-0.4-0.9-0.4
		s-0.6,0.1-0.9,0.4c-0.2,0.3-0.3,0.6-0.3,1C90.8,45.1,90.9,45.5,91.1,45.7z"/>
	<path class="st0" d="M101.9,41.9c0.7,0,1.3,0.2,1.7,0.6c0.4,0.4,0.6,1,0.6,1.7v2.9c0,0.2-0.1,0.2-0.3,0.2h-1.4
		c-0.2,0-0.3-0.1-0.3-0.2v-2.5c0-0.3-0.1-0.6-0.2-0.7c-0.2-0.2-0.4-0.3-0.7-0.3c-0.3,0-0.5,0.1-0.7,0.3c-0.2,0.2-0.3,0.4-0.3,0.7
		v2.6c0,0.2-0.1,0.2-0.2,0.2h-1.4c-0.2,0-0.2-0.1-0.2-0.2V44c0-0.2,0-0.3-0.1-0.3c-0.1-0.1-0.2-0.1-0.3-0.1c0,0-0.1,0-0.2,0
		c-0.2,0-0.3-0.1-0.3-0.2v-1c0-0.1,0.1-0.2,0.2-0.3c0.3-0.1,0.6-0.2,0.9-0.1c0.6,0,1.1,0.2,1.4,0.7
		C100.5,42.1,101.1,41.9,101.9,41.9z"/>
	<path class="st0" d="M112.1,42.1c0.2,0,0.2,0.1,0.3,0.2v5.2c0,0.8-0.3,1.4-0.8,1.8c-0.6,0.5-1.3,0.7-2.2,0.7c-0.8,0-1.5-0.2-2-0.5
		c-0.5-0.4-0.9-0.8-1-1.4c0-0.2,0.1-0.3,0.2-0.3h1.4c0.1,0,0.2,0.1,0.3,0.2c0.1,0.4,0.5,0.5,1.1,0.5c0.3,0,0.6-0.1,0.8-0.3
		c0.2-0.2,0.3-0.4,0.3-0.7V47c-0.4,0.3-0.9,0.5-1.5,0.5c-0.8,0-1.5-0.3-2-0.8c-0.5-0.5-0.8-1.2-0.8-2c0-0.8,0.3-1.5,0.8-2
		c0.5-0.5,1.2-0.8,2-0.8c0.6,0,1.1,0.2,1.5,0.5v-0.1c0-0.2,0.1-0.2,0.2-0.2H112.1z M108.3,45.7c0.2,0.2,0.5,0.4,0.9,0.4
		s0.6-0.1,0.9-0.4c0.2-0.2,0.3-0.6,0.3-1c0-0.4-0.1-0.7-0.3-0.9c-0.2-0.2-0.5-0.4-0.9-0.4s-0.6,0.1-0.9,0.4
		c-0.2,0.2-0.3,0.6-0.3,0.9C108,45.1,108.1,45.4,108.3,45.7z"/>
	<path class="st0" d="M117.4,47.6c-0.9,0-1.7-0.3-2.2-0.8s-0.8-1.2-0.8-2c0-0.8,0.3-1.5,0.8-2s1.2-0.8,2.1-0.8
		c0.9,0,1.6,0.3,2.1,0.8c0.5,0.5,0.8,1.2,0.8,2c0,0,0,0.1,0,0.1c0,0.1,0,0.1,0,0.1c0,0.1-0.1,0.2-0.3,0.2h-3.7
		c0.1,0.3,0.2,0.5,0.4,0.7s0.5,0.2,0.8,0.2s0.6-0.1,0.7-0.3c0.1-0.1,0.2-0.1,0.3-0.1h1.3c0.1,0,0.2,0,0.2,0.1c0,0,0,0.1,0,0.2
		c-0.2,0.5-0.5,0.9-1,1.1S118.1,47.6,117.4,47.6z M116.2,44.2h2.2c0-0.3-0.1-0.5-0.3-0.7c-0.2-0.2-0.4-0.3-0.8-0.3
		c-0.3,0-0.6,0.1-0.8,0.3C116.4,43.7,116.2,44,116.2,44.2z"/>
	<path class="st0" d="M126.7,42c0.2,0,0.2,0.1,0.2,0.3l-0.2,1.3c0,0.2-0.1,0.2-0.3,0.2c-0.2,0-0.4-0.1-0.6-0.1
		c-0.4,0-0.7,0.1-0.9,0.3c-0.2,0.2-0.4,0.5-0.4,0.9v2.2c0,0.2-0.1,0.2-0.2,0.2h-1.4c-0.2,0-0.2-0.1-0.2-0.2V44c0-0.2,0-0.3-0.1-0.3
		c-0.1-0.1-0.2-0.1-0.3-0.1c0,0-0.1,0-0.2,0c-0.2,0-0.3-0.1-0.3-0.2v-1c0-0.1,0.1-0.2,0.2-0.3c0.3-0.1,0.6-0.2,0.9-0.1
		c0.6,0,1.1,0.2,1.4,0.7c0.4-0.5,1-0.7,1.7-0.7C126.3,41.9,126.5,41.9,126.7,42z"/>
	<path class="st0" d="M133.2,45.4c-0.2,0-0.2-0.1-0.3-0.2V44c0-0.2,0.1-0.2,0.3-0.2h3.7c0.2,0,0.2,0.1,0.2,0.2v1.2
		c0,0.2-0.1,0.2-0.2,0.2H133.2z"/>
	<path class="st0" d="M143.6,47.4c-0.2,0-0.3-0.1-0.3-0.2v-0.5c0-0.1,0-0.2,0.1-0.3l2.9-3.3c0.3-0.3,0.4-0.7,0.4-1
		c0-0.2-0.1-0.4-0.2-0.5c-0.1-0.1-0.3-0.2-0.6-0.2c-0.2,0-0.4,0.1-0.5,0.2c-0.1,0.1-0.2,0.3-0.3,0.4c-0.1,0.1-0.2,0.2-0.3,0.2h-1.4
		c-0.2,0-0.3-0.1-0.2-0.2c0.1-0.7,0.4-1.2,0.9-1.6c0.5-0.4,1.2-0.6,2-0.6c0.8,0,1.5,0.2,2,0.6c0.5,0.4,0.8,1,0.8,1.6
		c0,0.6-0.3,1.3-0.9,1.9l-1.7,1.9h2.4c0.2,0,0.3,0.1,0.3,0.2v1.1c0,0.2-0.1,0.2-0.3,0.2H143.6z"/>
	<path class="st0" d="M151.7,40.5c0.6-0.6,1.4-0.9,2.4-0.9c1,0,1.8,0.3,2.4,0.9c0.6,0.6,0.9,1.3,0.9,2.3v1.6c0,0.9-0.3,1.7-0.9,2.3
		c-0.6,0.6-1.4,0.9-2.4,0.9c-1,0-1.8-0.3-2.4-0.9c-0.6-0.6-0.9-1.3-0.9-2.3v-1.6C150.8,41.9,151.1,41.1,151.7,40.5z M155.6,44.4
		v-1.6c0-0.4-0.1-0.8-0.4-1.1s-0.6-0.4-1-0.4c-0.4,0-0.8,0.1-1.1,0.4c-0.3,0.3-0.4,0.6-0.4,1.1v1.6c0,0.4,0.1,0.8,0.4,1.1
		c0.3,0.3,0.6,0.4,1.1,0.4c0.4,0,0.8-0.1,1-0.4S155.6,44.9,155.6,44.4z"/>
	<path class="st0" d="M162.5,39.9c0.2,0,0.2,0.1,0.2,0.3v7c0,0.2-0.1,0.2-0.2,0.2H161c-0.2,0-0.3-0.1-0.3-0.2v-5.7h-1.5
		c-0.2,0-0.3-0.1-0.3-0.2v-1.1c0-0.2,0.1-0.2,0.2-0.2H162.5z"/>
	<path class="st0" d="M168.1,39.7c0.9,0,1.7,0.3,2.3,0.8c0.6,0.5,0.9,1.2,0.9,2c0,0.5-0.2,1.1-0.6,1.7l-2.1,3.1
		c-0.1,0.1-0.2,0.2-0.3,0.2h-1.7c-0.1,0-0.2,0-0.2-0.1s0-0.1,0-0.2l1.4-2c-0.8,0-1.5-0.3-2-0.8s-0.8-1.1-0.8-1.8
		c0-0.8,0.3-1.5,0.9-2C166.4,39.9,167.2,39.7,168.1,39.7z M168.1,43.6c0.4,0,0.7-0.1,0.9-0.3c0.2-0.2,0.4-0.5,0.4-0.9
		c0-0.3-0.1-0.6-0.4-0.9s-0.6-0.3-0.9-0.3c-0.4,0-0.7,0.1-0.9,0.3s-0.4,0.5-0.4,0.9c0,0.3,0.1,0.6,0.4,0.9
		C167.5,43.5,167.8,43.6,168.1,43.6z"/>
</g>
<text transform="matrix(1 0 0 1 80.81 61.58)" class="st0 st1 st4">13</text>
<text transform="matrix(1 0 0 1 92.51 61.58)" class="st0 st1 st4">-</text>
<g class="st3">
	<path class="st0" d="M101.2,55.8c0.1,0,0.2,0.1,0.2,0.2v5.4c0,0.1-0.1,0.2-0.2,0.2h-1.1c-0.1,0-0.2-0.1-0.2-0.2V57h-1.2
		c-0.1,0-0.2-0.1-0.2-0.2V56c0-0.1,0.1-0.2,0.2-0.2H101.2z"/>
	<path class="st0" d="M106.7,57.6c0.7,0,1.2,0.2,1.6,0.6s0.6,0.8,0.6,1.4c0,0.6-0.2,1.2-0.7,1.6c-0.5,0.4-1,0.6-1.8,0.6
		c-0.7,0-1.3-0.2-1.8-0.6c-0.4-0.4-0.7-0.9-0.7-1.5c0-0.4,0.2-0.8,0.5-1.3l1.6-2.4c0-0.1,0.1-0.1,0.2-0.1h1.3c0.1,0,0.1,0,0.2,0.1
		c0,0,0,0.1,0,0.2L106.7,57.6z M106.4,60.5c0.3,0,0.5-0.1,0.7-0.3s0.3-0.4,0.3-0.7c0-0.3-0.1-0.5-0.3-0.7c-0.2-0.2-0.4-0.3-0.7-0.3
		c-0.3,0-0.5,0.1-0.7,0.3c-0.2,0.2-0.3,0.4-0.3,0.7c0,0.3,0.1,0.5,0.3,0.7C105.9,60.5,106.2,60.5,106.4,60.5z"/>
	<path class="st0" d="M119,56c0-0.1,0.1-0.2,0.2-0.2h1.2c0.1,0,0.2,0.1,0.2,0.2v5.4c0,0.1-0.1,0.2-0.2,0.2h-0.9
		c-0.1,0-0.2,0-0.2-0.1l-2.6-3v2.9c0,0.1-0.1,0.2-0.2,0.2h-1.2c-0.1,0-0.2-0.1-0.2-0.2V56c0-0.1,0.1-0.2,0.2-0.2h0.9
		c0.1,0,0.2,0,0.2,0.1L119,59V56z"/>
</g>
<text transform="matrix(1 0 0 1 122.59 61.58)" class="st0 st1 st4">ov</text>
<g class="st3">
	<path class="st0" d="M138.6,61.7c-0.7,0-1.3-0.2-1.7-0.6c-0.4-0.4-0.6-0.9-0.6-1.6c0-0.7,0.2-1.2,0.6-1.6c0.4-0.4,1-0.6,1.6-0.6
		c0.7,0,1.3,0.2,1.7,0.6s0.6,0.9,0.6,1.6c0,0,0,0.1,0,0.1c0,0.1,0,0.1,0,0.1c0,0.1-0.1,0.2-0.2,0.2h-2.9c0.1,0.2,0.2,0.4,0.3,0.5
		s0.4,0.2,0.6,0.2c0.2,0,0.4-0.1,0.6-0.2c0.1-0.1,0.2-0.1,0.2-0.1h1c0.1,0,0.1,0,0.2,0.1c0,0,0,0.1,0,0.1c-0.1,0.4-0.4,0.7-0.8,0.9
		C139.5,61.6,139.1,61.7,138.6,61.7z M137.7,59.2h1.7c0-0.2-0.1-0.4-0.3-0.5c-0.2-0.1-0.3-0.2-0.6-0.2c-0.2,0-0.4,0.1-0.6,0.2
		C137.8,58.8,137.7,58.9,137.7,59.2z"/>
	<path class="st0" d="M148.8,57.4c0.5,0,1,0.2,1.3,0.5c0.3,0.3,0.5,0.8,0.5,1.3v2.2c0,0.1-0.1,0.2-0.2,0.2h-1.1
		c-0.1,0-0.2-0.1-0.2-0.2v-2c0-0.2-0.1-0.4-0.2-0.6s-0.3-0.2-0.5-0.2c-0.2,0-0.3,0.1-0.4,0.2c-0.1,0.1-0.2,0.3-0.2,0.6v2
		c0,0.1-0.1,0.2-0.2,0.2h-1.1c-0.1,0-0.2-0.1-0.2-0.2v-2c0-0.2-0.1-0.4-0.2-0.6s-0.3-0.2-0.5-0.2c-0.2,0-0.4,0.1-0.5,0.2
		c-0.1,0.1-0.2,0.3-0.2,0.6v2c0,0.1-0.1,0.2-0.2,0.2h-1.1c-0.1,0-0.2-0.1-0.2-0.2V59c0-0.1,0-0.2-0.1-0.3c0,0-0.1-0.1-0.2-0.1
		c0,0-0.1,0-0.1,0c-0.1,0-0.2-0.1-0.2-0.2v-0.8c0-0.1,0.1-0.2,0.2-0.2c0.2-0.1,0.4-0.1,0.7-0.1c0.5,0,0.8,0.2,1,0.5
		c0.3-0.3,0.8-0.5,1.4-0.5c0.6,0,1,0.2,1.3,0.6C147.8,57.6,148.2,57.4,148.8,57.4z"/>
	<path class="st0" d="M155.7,57.4c0.6,0,1.2,0.2,1.6,0.6c0.4,0.4,0.6,0.9,0.6,1.6s-0.2,1.2-0.6,1.6c-0.4,0.4-0.9,0.6-1.6,0.6
		c-0.5,0-0.8-0.1-1.2-0.4v0c0,0.1-0.1,0.2-0.2,0.2h-1.1c-0.1,0-0.2-0.1-0.2-0.2v-5.7c0-0.1,0.1-0.2,0.2-0.2h1.1
		c0.1,0,0.2,0.1,0.2,0.2v2.1C154.9,57.5,155.3,57.4,155.7,57.4z M154.9,60.3c0.2,0.2,0.4,0.3,0.7,0.3c0.3,0,0.5-0.1,0.7-0.3
		s0.3-0.4,0.3-0.8s-0.1-0.6-0.3-0.8c-0.2-0.2-0.4-0.3-0.7-0.3c-0.3,0-0.5,0.1-0.7,0.3c-0.2,0.2-0.3,0.4-0.3,0.8
		C154.6,59.9,154.7,60.1,154.9,60.3z"/>
</g>
<text transform="matrix(1 0 0 1 159.69 61.58)" class="st0 st1 st4">r</text>
<text transform="matrix(1 0 0 1 165.38 61.58)" class="st0 st1 st4">e</text>
</svg>
